<?xml version="1.0" encoding="UTF-8" standalone="no"?>
<!DOCTYPE svg PUBLIC "-//W3C//DTD SVG 1.1//EN" "http://www.w3.org/Graphics/SVG/1.1/DTD/svg11.dtd">
<svg xmlns="http://www.w3.org/2000/svg" version="1.1" viewBox="0.00 0.00 1024.00 1024.00">
<g stroke-width="2.00" fill="none" stroke-linecap="butt">
<path stroke="#7eb1b6" vector-effect="non-scaling-stroke" d="
  M 6.44 1024.00
  L 6.62 1014.06
  Q 6.63 1013.50 6.07 1013.54
  L 0.00 1013.93"
/>
<path stroke="#7fecb8" vector-effect="non-scaling-stroke" d="
  M 688.35 241.73
  Q 677.07 247.49 666.21 254.68"
/>
<path stroke="#89f5b9" vector-effect="non-scaling-stroke" d="
  M 666.21 254.68
  Q 642.33 270.32 621.55 290.05
  C 596.69 313.64 573.10 339.04 552.11 366.14
  Q 538.01 384.35 524.11 402.62"
/>
<path stroke="#7fecb8" vector-effect="non-scaling-stroke" d="
  M 524.11 402.62
  Q 513.48 417.56 508.23 425.49
  Q 506.92 427.48 505.71 430.71
  Q 505.53 431.19 506.04 431.20
  C 541.63 432.09 577.17 430.74 612.81 431.73
  Q 613.35 431.74 613.68 431.33
  L 619.50 424.04"
/>
<path stroke="#7fe3ba" vector-effect="non-scaling-stroke" d="
  M 619.50 424.04
  C 631.50 408.24 641.04 397.60 656.30 380.41
  Q 665.00 370.61 670.21 366.07
  C 688.26 350.37 711.69 339.55 735.98 339.86
  C 740.84 339.92 746.74 340.84 752.09 341.30
  Q 752.53 341.33 752.49 341.76
  L 752.17 345.66
  A 0.43 0.43 0.0 0 1 751.65 346.04
  Q 726.78 340.42 703.50 350.24
  C 688.59 356.53 675.61 364.51 665.24 377.00
  C 663.97 378.53 665.00 427.11 665.00 433.24"
/>
<path stroke="#7edabf" vector-effect="non-scaling-stroke" d="
  M 665.00 433.24
  L 664.98 455.16
  Q 664.98 455.67 664.47 455.67
  L 576.03 456.02"
/>
<path stroke="#7fe3ba" vector-effect="non-scaling-stroke" d="
  M 576.03 456.02
  L 530.01 456.01"
/>
<path stroke="#7fecb8" vector-effect="non-scaling-stroke" d="
  M 530.01 456.01
  L 427.01 455.69"
/>
<path stroke="#89f5b9" vector-effect="non-scaling-stroke" d="
  M 427.01 455.69
  L 369.52 455.88
  A 1.16 1.16 0.0 0 1 368.36 454.72
  L 368.16 318.53"
/>
<path stroke="#7ff3c6" vector-effect="non-scaling-stroke" d="
  M 368.16 318.53
  Q 368.39 297.65 367.45 291.77
  C 362.31 259.58 335.82 236.35 304.88 229.99
  C 293.45 227.64 280.68 227.79 268.74 229.16
  A 0.92 0.91 86.5 0 0 267.94 230.07
  L 268.21 275.00"
/>
<path stroke="#89f5b9" vector-effect="non-scaling-stroke" d="
  M 268.21 275.00
  L 268.08 762.23
  A 2.70 2.69 89.6 0 0 270.81 764.93
  L 281.99 764.79"
/>
<path stroke="#7ff3c6" vector-effect="non-scaling-stroke" d="
  M 281.99 764.79
  Q 312.03 761.71 339.07 746.83
  C 362.61 733.87 383.37 718.50 402.18 699.79
  Q 432.42 669.71 463.63 631.64
  Q 476.98 615.36 483.10 606.29"
/>
<path stroke="#89f5b9" vector-effect="non-scaling-stroke" d="
  M 483.10 606.29
  L 513.43 559.41
  Q 513.66 559.05 513.23 559.05
  L 411.26 558.78
  A 2.21 2.20 18.8 0 0 409.52 559.63
  C 400.90 570.61 392.13 583.87 384.48 593.02
  Q 375.25 604.07 364.58 613.73
  C 352.03 625.10 343.50 632.07 327.51 633.34
  Q 323.39 633.67 323.68 630.16
  A 0.93 0.92 0.7 0 1 324.56 629.31
  Q 340.29 628.55 352.08 618.57
  Q 362.29 609.91 367.83 603.33
  Q 368.14 602.96 368.14 602.47
  L 368.54 541.30
  Q 368.54 540.62 369.23 540.62
  L 472.26 540.44"
/>
<path stroke="#7fe3ba" vector-effect="non-scaling-stroke" d="
  M 472.26 540.44
  L 660.28 540.49
  A 2.10 2.04 33.7 0 0 661.03 540.35
  Q 661.37 540.21 661.76 540.22"
/>
<path stroke="#7ed3bf" vector-effect="non-scaling-stroke" d="
  M 661.76 540.22
  L 664.49 540.59
  Q 665.03 540.67 665.05 541.21
  L 665.47 553.25"
/>
<path stroke="#7fc7b7" vector-effect="non-scaling-stroke" d="
  M 665.47 553.25
  L 665.50 653.99"
/>
<path stroke="#7fbbb5" vector-effect="non-scaling-stroke" d="
  M 665.50 653.99
  C 665.50 665.30 665.61 676.60 665.34 687.90
  Q 664.89 706.93 674.41 723.58"
/>
<path stroke="#7eb1b6" vector-effect="non-scaling-stroke" d="
  M 674.41 723.58
  Q 691.54 752.90 723.64 761.55
  C 732.13 763.84 740.26 765.28 748.67 764.65
  Q 755.46 764.15 759.88 764.05
  Q 760.29 764.04 760.29 763.63
  L 760.24 228.75"
/>
<path stroke="#7fe3ba" vector-effect="non-scaling-stroke" d="
  M 760.24 228.75
  Q 722.74 224.94 688.35 241.73"
/>
<path stroke="#019573" vector-effect="non-scaling-stroke" d="
  M 760.24 228.75
  Q 759.62 230.95 759.61 231.57
  C 758.71 277.62 760.03 322.03 759.04 369.75"
/>
<path stroke="#01b77c" vector-effect="non-scaling-stroke" d="
  M 759.04 369.75
  L 758.97 375.55"
/>
<path stroke="#01bf7c" vector-effect="non-scaling-stroke" d="
  M 758.97 375.55
  L 756.23 373.03
  Q 755.83 372.66 755.29 372.77
  C 748.84 374.14 741.33 375.45 734.81 374.10
  C 722.90 371.65 719.17 382.87 712.79 389.91
  C 709.08 394.01 705.51 397.46 702.44 402.11
  Q 702.14 402.56 702.31 403.08
  L 702.66 404.09
  Q 702.85 404.66 702.26 404.60
  Q 697.57 404.18 695.55 408.32
  Q 695.32 408.80 694.79 408.87
  C 692.26 409.18 688.92 413.93 686.65 415.68
  Q 686.24 416.00 685.72 416.00
  L 684.82 416.00
  Q 684.16 416.00 683.91 416.60
  L 682.72 419.41
  Q 682.46 420.01 683.10 419.89
  L 683.91 419.73
  Q 684.72 419.57 684.45 420.35
  Q 682.80 425.09 680.25 429.42
  C 678.63 432.15 676.26 432.80 673.48 433.85
  Q 673.00 434.03 672.77 434.48
  L 672.33 435.33
  Q 672.00 435.96 672.00 435.25
  L 672.00 434.31
  Q 672.00 433.83 671.58 433.62
  Q 669.66 432.64 668.18 434.14
  Q 667.82 434.50 667.41 434.21
  L 666.10 433.29
  Q 665.87 433.13 665.79 433.39
  L 665.69 433.68
  Q 665.52 434.21 665.32 433.69
  Q 665.18 433.33 665.00 433.24"
/>
<path stroke="#01d075" vector-effect="non-scaling-stroke" d="
  M 619.50 424.04
  Q 618.05 422.74 619.71 421.40
  Q 619.98 421.19 620.02 421.53
  Q 620.04 421.76 620.29 421.90
  Q 620.74 422.16 620.65 421.65
  Q 620.58 421.20 621.15 420.98
  A 0.17 0.16 -45.3 0 0 621.15 420.67
  Q 620.99 420.61 620.80 420.66
  Q 620.35 420.78 620.45 420.32
  Q 621.19 416.90 618.36 414.83
  A 0.91 0.88 -72.3 0 1 617.99 414.08
  C 618.11 410.17 617.52 406.12 618.42 402.53
  Q 619.48 398.34 621.64 394.58
  A 0.08 0.08 0.0 0 0 621.54 394.47
  L 613.01 397.81
  Q 612.52 398.00 612.16 397.61
  L 610.91 396.21
  Q 610.60 395.86 610.89 395.50
  L 618.83 385.41
  Q 619.94 384.00 618.14 384.00
  L 617.03 384.00
  Q 616.62 384.00 616.80 383.63
  Q 619.98 377.00 625.54 372.21
  Q 625.98 371.83 626.56 371.73
  Q 631.18 370.91 632.95 366.67
  Q 633.15 366.17 633.59 365.85
  C 638.16 362.55 641.16 358.32 645.55 354.88
  C 646.86 353.85 650.51 349.91 651.77 349.69
  Q 652.25 349.61 652.57 349.27
  Q 655.35 346.36 658.92 344.59
  C 660.67 343.72 661.84 342.31 663.57 341.35
  Q 666.10 339.93 666.98 338.99
  C 668.32 337.55 670.40 334.01 672.02 333.54
  C 678.01 331.80 678.71 326.81 680.00 320.56
  Q 680.56 317.87 680.09 314.93
  C 678.35 303.93 677.61 293.65 679.76 283.53
  C 680.41 280.50 682.26 278.11 683.42 275.16
  C 685.89 268.86 691.22 263.32 691.85 256.53
  C 692.39 250.75 693.15 247.48 690.23 243.36
  C 689.69 242.60 689.72 242.63 688.78 242.85
  Q 688.38 242.95 688.37 242.54
  L 688.35 241.73"
/>
<path stroke="#01bf7c" vector-effect="non-scaling-stroke" d="
  M 653.27 539.23
  L 601.05 539.49
  Q 600.35 539.49 601.04 539.35
  Q 602.80 538.99 604.00 539.00
  Q 612.62 539.02 622.87 539.00
  Q 626.07 538.99 623.10 537.79
  C 620.95 536.93 620.94 529.62 620.14 527.07
  Q 620.00 526.61 620.45 526.48
  Q 621.76 526.09 622.32 524.79
  Q 622.55 524.24 622.18 523.78
  Q 620.66 521.94 621.15 519.56
  Q 621.32 518.74 620.55 519.07
  Q 619.66 519.45 618.96 520.23
  Q 618.50 520.74 618.44 520.05
  Q 617.72 512.41 615.24 505.11
  A 0.44 0.44 0.0 0 1 615.81 504.55
  Q 616.72 504.88 617.52 504.14
  Q 617.79 503.89 617.71 503.53
  L 616.85 499.65
  Q 616.80 499.42 616.56 499.38
  L 615.38 499.18
  Q 614.90 499.10 614.82 498.63
  Q 614.11 494.47 614.57 490.29
  A 0.31 0.31 0.0 0 0 614.13 489.97
  L 611.01 491.35
  Q 610.34 491.65 610.44 490.93
  L 611.16 485.80
  Q 611.22 485.38 610.80 485.32
  L 608.41 484.96
  Q 607.93 484.88 607.94 484.40
  L 608.14 475.25
  Q 608.17 473.59 609.70 474.24
  L 611.67 475.08
  Q 612.21 475.31 612.19 474.73
  C 611.96 468.68 605.68 463.78 600.63 461.95
  Q 598.22 461.07 591.61 460.69
  Q 585.48 460.34 579.43 459.01
  Q 577.28 458.54 576.03 456.02"
/>
<path stroke="#016d6d" vector-effect="non-scaling-stroke" d="
  M 674.41 723.58
  Q 675.78 722.83 676.21 724.52
  Q 676.32 724.96 676.77 724.93
  Q 678.82 724.81 679.82 723.25
  Q 680.10 722.82 680.61 722.72
  Q 687.94 721.30 693.06 718.81
  C 696.37 717.21 698.55 713.39 700.90 711.33
  Q 704.28 708.36 707.71 705.41
  C 710.51 702.99 711.83 698.79 713.93 695.68
  C 717.17 690.88 719.19 685.62 722.21 680.85
  Q 723.81 678.31 725.36 675.78
  Q 725.57 675.44 725.51 675.04
  L 724.98 671.32
  Q 724.91 670.80 725.16 670.34
  C 726.09 668.61 727.48 667.05 727.82 665.05
  Q 728.76 659.50 731.12 654.41
  Q 731.35 653.91 731.54 654.42
  L 732.33 656.53
  Q 732.54 657.09 732.84 656.57
  Q 735.74 651.59 736.73 645.93
  A 0.43 0.42 33.0 0 1 737.50 645.77
  L 738.27 646.90
  Q 738.56 647.33 738.76 646.85
  L 742.53 638.21
  Q 742.76 637.69 742.41 637.23
  L 741.89 636.55
  Q 741.60 636.17 741.77 635.72
  Q 745.74 625.31 751.49 615.74
  Q 751.57 615.61 751.68 615.73
  L 751.94 616.06
  Q 752.23 616.41 752.28 615.95
  Q 752.67 612.41 756.10 611.12
  A 1.62 1.61 40.4 0 1 756.98 611.05
  Q 757.58 611.17 758.20 610.74
  Q 758.55 610.50 758.54 610.07
  C 758.47 606.85 759.19 603.28 759.20 600.41
  Q 759.31 556.09 759.23 511.74"
/>
<path stroke="#017a6f" vector-effect="non-scaling-stroke" d="
  M 759.23 511.74
  L 759.39 455.00"
/>
<path stroke="#008577" vector-effect="non-scaling-stroke" d="
  M 759.39 455.00
  L 759.04 369.75"
/>
<path stroke="#019c78" vector-effect="non-scaling-stroke" d="
  M 759.39 455.00
  L 758.89 466.38
  A 0.77 0.77 0.0 0 1 757.53 466.83
  Q 756.32 465.35 754.13 466.83
  C 744.32 473.45 737.26 480.76 729.41 490.63
  C 725.63 495.38 721.83 500.49 717.92 503.01
  C 713.92 505.59 712.76 510.54 708.72 513.36
  Q 706.21 515.11 704.07 517.29
  Q 703.98 517.38 703.99 517.26
  Q 704.00 517.12 704.01 516.96
  Q 704.03 516.63 703.74 516.79
  L 699.25 519.11
  Q 698.77 519.36 698.49 519.82
  Q 697.53 521.38 696.54 522.94
  C 694.53 526.09 689.93 528.06 687.85 530.35
  C 686.70 531.61 685.75 535.00 683.87 536.50
  Q 682.91 537.27 681.87 537.97
  A 1.47 1.45 -7.6 0 0 681.31 538.69
  Q 680.38 541.30 679.05 543.72
  Q 679.03 543.76 679.06 543.81
  Q 679.14 543.91 679.23 544.00
  Q 679.44 544.21 679.24 544.42
  C 675.37 548.54 672.80 552.68 666.86 553.99
  A 0.44 0.43 -19.2 0 1 666.38 553.76
  L 666.20 553.37
  Q 666.16 553.30 666.10 553.34
  Q 665.96 553.43 665.93 553.64
  Q 665.92 553.70 665.89 553.65
  Q 665.70 553.31 665.47 553.25"
/>
<path stroke="#01b77c" vector-effect="non-scaling-stroke" d="
  M 661.76 540.22
  C 660.78 538.63 655.10 539.25 653.27 539.23"
/>
<path stroke="#00af81" vector-effect="non-scaling-stroke" d="
  M 653.27 539.23
  Q 652.73 537.59 651.54 537.78
  A 1.21 1.20 88.9 0 1 650.16 536.45
  Q 651.43 525.24 654.15 514.28
  Q 654.20 514.07 654.28 514.26
  Q 654.56 514.95 655.27 515.42
  Q 656.43 516.20 656.59 514.81
  C 657.19 509.40 658.07 505.19 660.88 500.25
  C 663.74 495.20 666.63 490.48 668.80 485.07
  Q 669.63 483.02 671.57 481.64
  A 1.04 1.04 0.0 0 0 672.00 480.80
  L 672.00 480.31
  Q 672.00 479.85 672.23 479.46
  Q 675.78 473.57 678.44 467.23
  Q 679.16 465.54 681.38 463.88
  Q 681.77 463.58 681.96 463.13
  L 683.60 459.18
  Q 683.71 458.91 683.61 458.64
  Q 683.56 458.51 683.51 458.36
  A 0.05 0.05 0.0 0 1 683.58 458.30
  L 683.82 458.43
  Q 683.95 458.49 684.26 457.98
  Q 684.82 457.07 683.83 456.68
  Q 683.24 456.44 683.66 455.96
  Q 687.38 451.62 689.83 446.46
  C 690.52 444.99 691.27 444.70 692.64 444.08
  A 2.01 1.97 -86.0 0 0 693.51 443.31
  L 699.08 434.13
  A 0.50 0.49 -44.8 0 1 699.93 434.13
  Q 700.55 435.14 701.70 435.21
  A 0.49 0.46 -10.9 0 1 702.09 435.46
  L 702.27 435.79
  Q 702.35 435.95 702.46 435.80
  L 703.04 435.03
  A 0.52 0.52 0.0 0 1 703.97 435.33
  L 704.01 436.74
  Q 704.04 437.67 704.56 436.91
  C 708.80 430.82 713.76 424.21 720.41 420.64
  Q 728.32 416.38 736.94 413.69
  C 740.31 412.64 741.85 412.95 745.07 413.92
  Q 749.05 415.11 754.99 413.97
  Q 756.83 413.62 757.16 415.51
  Q 757.25 416.00 757.75 416.00
  L 758.48 416.00
  Q 758.99 416.00 758.99 415.49
  L 758.97 375.55"
/>
<path stroke="#0ce274" vector-effect="non-scaling-stroke" d="
  M 524.11 402.62
  L 525.16 404.26
  A 0.59 0.58 -37.4 0 0 526.05 404.37
  Q 526.76 403.72 527.32 404.27
  Q 527.59 404.55 527.82 404.23
  Q 529.68 401.60 533.04 401.38
  Q 533.54 401.35 533.34 401.82
  Q 532.93 402.79 532.67 403.87
  A 0.18 0.18 0.0 0 0 533.00 404.00
  C 534.75 400.74 537.94 402.30 539.09 398.94
  A 1.20 1.19 87.8 0 1 539.74 398.23
  C 543.94 396.32 548.47 396.21 552.27 393.96
  Q 556.71 391.33 560.91 388.37
  C 563.38 386.62 564.11 384.28 567.15 382.70
  Q 570.86 380.77 573.50 377.50
  Q 573.80 377.12 574.27 377.01
  C 576.08 376.55 578.49 373.27 580.70 371.29
  Q 581.47 370.59 581.06 371.55
  L 579.70 374.70
  Q 579.51 375.15 579.90 374.86
  Q 585.13 371.08 590.24 367.14
  Q 590.68 366.80 590.89 366.28
  Q 592.80 361.46 597.31 359.10
  Q 597.77 358.85 598.29 358.94
  L 599.00 359.06
  Q 599.50 359.15 599.78 358.72
  C 600.75 357.17 607.98 347.96 608.03 347.38
  Q 608.06 346.97 608.32 346.66
  Q 612.50 341.62 617.39 337.34
  C 622.67 332.71 622.06 327.25 628.80 324.19
  A 1.24 1.22 88.4 0 0 629.45 323.49
  C 630.84 319.74 633.46 316.48 634.96 313.39
  C 636.18 310.86 637.24 308.93 638.03 306.00
  Q 638.47 304.34 639.74 303.11
  Q 640.09 302.77 640.05 302.27
  Q 639.74 298.87 641.80 297.32
  Q 646.86 293.53 648.53 291.29
  Q 650.36 288.82 653.14 287.76
  Q 653.54 287.61 653.74 287.24
  L 658.34 279.05
  Q 658.57 278.64 658.47 278.18
  Q 658.00 276.11 659.79 274.99
  Q 660.10 274.80 660.47 274.86
  C 661.13 274.97 661.53 274.54 661.66 273.87
  Q 662.19 271.01 664.65 269.27
  A 1.68 1.60 -7.6 0 0 665.23 268.55
  L 668.57 260.53
  A 1.02 0.99 45.9 0 0 668.57 259.76
  L 667.24 256.42
  Q 667.10 256.06 666.70 256.00
  L 666.37 255.96
  A 0.32 0.32 0.0 0 1 666.15 255.45
  Q 666.63 254.82 666.21 254.68"
/>
<path stroke="#01846e" vector-effect="non-scaling-stroke" d="
  M 759.23 511.74
  L 758.63 520.05
  A 0.87 0.87 0.0 0 1 757.08 520.53
  C 755.67 518.73 750.25 525.32 749.16 526.35
  C 746.15 529.20 746.30 532.29 741.53 533.68
  Q 741.04 533.83 740.75 534.25
  C 739.24 536.45 735.86 540.87 735.95 543.52
  Q 735.97 544.00 735.49 544.00
  L 735.08 544.00
  Q 734.67 544.00 734.44 544.34
  L 731.81 548.29
  Q 731.48 548.79 731.39 549.37
  C 731.00 552.11 729.20 553.43 727.98 555.19
  C 720.51 565.94 711.69 576.73 702.56 587.18
  C 697.02 593.50 694.23 602.54 691.05 611.06
  C 689.16 616.13 685.23 621.19 683.08 625.65
  Q 677.27 637.72 672.52 650.26
  Q 671.60 652.71 669.11 656.02
  Q 668.73 656.54 668.29 656.07
  Q 667.60 655.35 667.17 656.41
  Q 667.01 656.82 667.00 656.38
  Q 666.99 656.19 667.01 655.99
  A 0.27 0.27 0.0 0 0 666.58 655.74
  Q 665.69 656.38 665.88 657.70
  Q 665.84 655.77 665.50 653.99"
/>
<path stroke="#0ce274" vector-effect="non-scaling-stroke" d="
  M 427.01 455.69
  L 418.48 456.28
  A 0.18 0.17 45.3 0 0 418.48 456.63
  Q 419.61 456.74 420.75 456.87
  Q 421.27 456.93 421.14 457.43
  L 421.03 457.87
  A 0.54 0.54 0.0 0 0 421.43 458.53
  L 423.80 459.14
  Q 424.74 459.38 423.79 459.56
  L 422.49 459.81
  Q 421.12 460.07 422.50 460.32
  Q 432.98 462.22 439.65 470.14
  Q 440.99 471.73 442.81 472.67
  C 446.60 474.64 449.40 477.47 453.03 479.66
  Q 453.99 480.25 452.89 480.02
  Q 451.58 479.75 450.46 480.35
  A 0.51 0.50 -35.4 0 0 450.32 481.13
  C 451.77 482.75 453.02 484.07 453.88 486.14
  Q 457.86 495.78 464.08 504.09
  Q 466.08 506.77 467.00 509.42
  Q 470.32 519.04 472.57 528.97
  C 473.12 531.41 472.37 533.63 472.70 536.22
  A 1.27 1.27 0.0 0 1 472.34 537.28
  L 471.40 538.22
  Q 471.08 538.55 471.54 538.60
  L 473.38 538.82
  Q 473.98 538.89 473.48 539.24
  Q 473.30 539.37 472.98 539.52"
/>
<path stroke="#0cd976" vector-effect="non-scaling-stroke" d="
  M 472.98 539.52
  C 472.41 539.38 470.97 539.79 472.26 540.44"
/>
<path stroke="#0ce982" vector-effect="non-scaling-stroke" d="
  M 483.10 606.29
  Q 483.18 604.15 484.62 602.61
  A 2.32 2.20 77.2 0 0 485.12 601.77
  Q 485.81 599.74 488.28 597.03
  Q 489.37 595.84 491.67 591.36
  Q 492.03 590.67 491.45 591.19
  L 490.55 592.03
  Q 489.97 592.56 489.96 591.77
  Q 489.94 587.75 487.13 584.80
  A 0.83 0.82 -55.4 0 0 485.77 585.05
  Q 484.98 586.91 483.06 587.35
  Q 482.79 587.41 482.99 587.61
  Q 483.11 587.73 483.24 587.86
  A 0.18 0.18 0.0 0 1 483.16 588.17
  Q 480.68 588.74 478.39 591.15
  Q 472.52 597.34 463.56 600.53
  Q 460.36 601.67 458.49 605.91
  Q 458.26 606.43 457.73 606.61
  Q 454.98 607.55 452.17 606.83
  Q 451.63 606.69 451.63 607.25
  Q 451.64 611.04 449.54 614.10
  Q 449.30 614.45 448.89 614.46
  Q 448.09 614.48 447.72 615.17
  Q 447.50 615.58 447.10 615.82
  Q 445.12 617.00 442.83 617.24
  Q 442.31 617.29 441.89 617.59
  Q 438.61 619.92 434.80 621.14
  Q 434.17 621.34 433.88 621.95
  L 432.32 625.22
  Q 432.16 625.57 431.83 625.77
  Q 428.96 627.54 425.61 627.83
  Q 425.10 627.88 424.64 628.11
  L 417.58 631.78
  Q 417.11 632.02 416.87 632.50
  L 415.99 634.26
  A 0.74 0.74 0.0 0 1 415.32 634.68
  Q 410.19 634.63 408.65 639.29
  Q 408.48 639.79 408.02 640.02
  C 405.61 641.25 402.98 641.38 400.93 642.54
  C 398.27 644.04 396.67 646.21 394.05 647.69
  C 391.17 649.32 389.26 651.64 386.42 653.04
  Q 383.83 654.33 381.31 655.74
  Q 380.89 655.97 381.01 655.51
  Q 381.20 654.78 381.66 654.17
  A 0.43 0.43 0.0 0 0 381.03 653.59
  Q 374.60 659.38 366.92 663.36
  Q 366.44 663.61 366.16 664.08
  Q 363.31 668.95 360.51 670.24
  C 355.34 672.62 350.62 676.64 346.36 679.05
  Q 335.48 685.22 324.94 691.93
  Q 322.70 693.36 314.33 695.76
  C 309.76 697.07 305.02 704.69 302.74 708.64
  Q 302.48 709.09 302.01 709.29
  C 297.39 711.29 296.69 713.02 294.80 717.43
  A 2.09 2.04 84.3 0 1 294.09 718.32
  L 290.48 720.88
  A 0.94 0.93 -14.8 0 0 290.10 721.52
  L 289.53 725.94
  Q 289.46 726.45 289.05 726.75
  C 283.80 730.63 285.32 734.85 283.77 740.19
  Q 283.50 741.13 284.19 740.44
  L 286.31 738.32
  Q 286.69 737.94 286.59 738.47
  L 285.51 744.28
  Q 285.45 744.60 285.18 744.77
  L 282.12 746.76
  A 0.58 0.58 0.0 0 0 281.87 747.40
  Q 282.60 750.08 282.77 752.83
  Q 282.81 753.38 282.46 753.81
  Q 279.41 757.52 283.02 760.51
  A 0.36 0.36 0.0 0 1 282.93 761.12
  L 279.95 762.36
  Q 279.54 762.53 279.95 762.68
  Q 281.21 763.13 282.42 762.77
  Q 283.21 762.54 282.82 763.26
  L 281.99 764.79"
/>
<path stroke="#01d075" vector-effect="non-scaling-stroke" d="
  M 530.01 456.01
  Q 529.26 456.30 528.28 456.26
  Q 527.84 456.24 528.22 456.47
  L 528.57 456.68
  Q 529.70 457.35 528.50 457.01
  Q 528.07 456.89 527.92 457.14
  Q 527.64 457.59 528.16 457.51
  Q 529.03 457.37 529.22 458.24
  Q 529.29 458.58 529.05 458.83
  L 528.83 459.04
  Q 528.42 459.45 528.97 459.64
  C 531.60 460.54 534.43 460.08 536.74 460.37
  Q 546.59 461.62 556.50 460.38
  Q 560.00 459.94 563.07 459.99
  A 2.14 2.14 0.0 0 1 565.16 462.32
  Q 564.28 472.38 562.63 482.79
  C 562.12 486.04 560.97 490.40 560.51 494.31
  Q 560.50 494.43 560.62 494.41
  Q 560.74 494.39 560.87 494.35
  Q 561.01 494.32 560.99 494.46
  Q 559.73 501.71 559.92 509.06
  Q 559.94 509.63 559.52 510.03
  Q 552.90 516.43 555.09 525.73
  Q 555.43 527.19 554.77 529.99
  Q 554.14 532.69 555.77 537.42
  Q 555.93 537.91 555.43 538.02
  Q 554.24 538.30 554.16 539.29
  Q 554.14 539.57 553.87 539.57
  L 472.98 539.52"
/>
<path stroke="#0ce982" vector-effect="non-scaling-stroke" d="
  M 368.16 318.53
  Q 367.85 320.29 367.69 317.16
  Q 367.65 316.42 367.14 316.96
  L 365.46 318.77
  Q 365.39 318.84 365.30 318.89
  Q 364.80 319.12 364.76 318.81
  Q 364.68 318.31 364.18 318.40
  L 344.76 322.00
  A 0.56 0.55 -81.2 0 1 344.17 321.19
  L 345.04 319.53
  Q 345.31 319.03 344.73 319.03
  C 339.19 319.10 323.06 318.38 322.28 323.62
  Q 322.20 324.11 321.71 324.17
  C 317.61 324.63 311.99 322.10 307.62 321.53
  Q 307.07 321.46 306.65 321.11
  Q 304.93 319.69 302.69 320.02
  A 0.40 0.40 0.0 0 1 302.26 319.48
  Q 302.36 319.19 302.69 319.19
  A 0.42 0.25 48.9 0 0 302.57 318.54
  C 299.52 316.61 297.64 314.03 294.61 312.06
  Q 294.22 311.81 293.75 311.85
  C 290.91 312.11 287.52 307.23 285.91 306.33
  C 280.66 303.39 279.91 299.75 276.03 295.99
  Q 275.66 295.62 275.55 295.12
  Q 274.74 291.50 271.42 289.88
  Q 270.93 289.64 271.04 289.11
  Q 271.61 286.30 269.28 284.68
  A 0.97 0.94 -74.8 0 1 268.88 283.96
  L 268.21 275.00"
/>
</g>
<path fill="#fcfefd" d="
  M 0.00 0.00
  L 1024.00 0.00
  L 1024.00 1024.00
  L 6.44 1024.00
  L 6.62 1014.06
  Q 6.63 1013.50 6.07 1013.54
  L 0.00 1013.93
  L 0.00 0.00
  Z
  M 688.35 241.73
  Q 677.07 247.49 666.21 254.68
  Q 642.33 270.32 621.55 290.05
  C 596.69 313.64 573.10 339.04 552.11 366.14
  Q 538.01 384.35 524.11 402.62
  Q 513.48 417.56 508.23 425.49
  Q 506.92 427.48 505.71 430.71
  Q 505.53 431.19 506.04 431.20
  C 541.63 432.09 577.17 430.74 612.81 431.73
  Q 613.35 431.74 613.68 431.33
  L 619.50 424.04
  C 631.50 408.24 641.04 397.60 656.30 380.41
  Q 665.00 370.61 670.21 366.07
  C 688.26 350.37 711.69 339.55 735.98 339.86
  C 740.84 339.92 746.74 340.84 752.09 341.30
  Q 752.53 341.33 752.49 341.76
  L 752.17 345.66
  A 0.43 0.43 0.0 0 1 751.65 346.04
  Q 726.78 340.42 703.50 350.24
  C 688.59 356.53 675.61 364.51 665.24 377.00
  C 663.97 378.53 665.00 427.11 665.00 433.24
  L 664.98 455.16
  Q 664.98 455.67 664.47 455.67
  L 576.03 456.02
  L 530.01 456.01
  L 427.01 455.69
  L 369.52 455.88
  A 1.16 1.16 0.0 0 1 368.36 454.72
  L 368.16 318.53
  Q 368.39 297.65 367.45 291.77
  C 362.31 259.58 335.82 236.35 304.88 229.99
  C 293.45 227.64 280.68 227.79 268.74 229.16
  A 0.92 0.91 86.5 0 0 267.94 230.07
  L 268.21 275.00
  L 268.08 762.23
  A 2.70 2.69 89.6 0 0 270.81 764.93
  L 281.99 764.79
  Q 312.03 761.71 339.07 746.83
  C 362.61 733.87 383.37 718.50 402.18 699.79
  Q 432.42 669.71 463.63 631.64
  Q 476.98 615.36 483.10 606.29
  L 513.43 559.41
  Q 513.66 559.05 513.23 559.05
  L 411.26 558.78
  A 2.21 2.20 18.8 0 0 409.52 559.63
  C 400.90 570.61 392.13 583.87 384.48 593.02
  Q 375.25 604.07 364.58 613.73
  C 352.03 625.10 343.50 632.07 327.51 633.34
  Q 323.39 633.67 323.68 630.16
  A 0.93 0.92 0.7 0 1 324.56 629.31
  Q 340.29 628.55 352.08 618.57
  Q 362.29 609.91 367.83 603.33
  Q 368.14 602.96 368.14 602.47
  L 368.54 541.30
  Q 368.54 540.62 369.23 540.62
  L 472.26 540.44
  L 660.28 540.49
  A 2.10 2.04 33.7 0 0 661.03 540.35
  Q 661.37 540.21 661.76 540.22
  L 664.49 540.59
  Q 665.03 540.67 665.05 541.21
  L 665.47 553.25
  L 665.50 653.99
  C 665.50 665.30 665.61 676.60 665.34 687.90
  Q 664.89 706.93 674.41 723.58
  Q 691.54 752.90 723.64 761.55
  C 732.13 763.84 740.26 765.28 748.67 764.65
  Q 755.46 764.15 759.88 764.05
  Q 760.29 764.04 760.29 763.63
  L 760.24 228.75
  Q 722.74 224.94 688.35 241.73
  Z"
/>
<path fill="#01c777" d="
  M 760.24 228.75
  Q 759.62 230.95 759.61 231.57
  C 758.71 277.62 760.03 322.03 759.04 369.75
  L 758.97 375.55
  L 756.23 373.03
  Q 755.83 372.66 755.29 372.77
  C 748.84 374.14 741.33 375.45 734.81 374.10
  C 722.90 371.65 719.17 382.87 712.79 389.91
  C 709.08 394.01 705.51 397.46 702.44 402.11
  Q 702.14 402.56 702.31 403.08
  L 702.66 404.09
  Q 702.85 404.66 702.26 404.60
  Q 697.57 404.18 695.55 408.32
  Q 695.32 408.80 694.79 408.87
  C 692.26 409.18 688.92 413.93 686.65 415.68
  Q 686.24 416.00 685.72 416.00
  L 684.82 416.00
  Q 684.16 416.00 683.91 416.60
  L 682.72 419.41
  Q 682.46 420.01 683.10 419.89
  L 683.91 419.73
  Q 684.72 419.57 684.45 420.35
  Q 682.80 425.09 680.25 429.42
  C 678.63 432.15 676.26 432.80 673.48 433.85
  Q 673.00 434.03 672.77 434.48
  L 672.33 435.33
  Q 672.00 435.96 672.00 435.25
  L 672.00 434.31
  Q 672.00 433.83 671.58 433.62
  Q 669.66 432.64 668.18 434.14
  Q 667.82 434.50 667.41 434.21
  L 666.10 433.29
  Q 665.87 433.13 665.79 433.39
  L 665.69 433.68
  Q 665.52 434.21 665.32 433.69
  Q 665.18 433.33 665.00 433.24
  C 665.00 427.11 663.97 378.53 665.24 377.00
  C 675.61 364.51 688.59 356.53 703.50 350.24
  Q 726.78 340.42 751.65 346.04
  A 0.43 0.43 0.0 0 0 752.17 345.66
  L 752.49 341.76
  Q 752.53 341.33 752.09 341.30
  C 746.74 340.84 740.84 339.92 735.98 339.86
  C 711.69 339.55 688.26 350.37 670.21 366.07
  Q 665.00 370.61 656.30 380.41
  C 641.04 397.60 631.50 408.24 619.50 424.04
  Q 618.05 422.74 619.71 421.40
  Q 619.98 421.19 620.02 421.53
  Q 620.04 421.76 620.29 421.90
  Q 620.74 422.16 620.65 421.65
  Q 620.58 421.20 621.15 420.98
  A 0.17 0.16 -45.3 0 0 621.15 420.67
  Q 620.99 420.61 620.80 420.66
  Q 620.35 420.78 620.45 420.32
  Q 621.19 416.90 618.36 414.83
  A 0.91 0.88 -72.3 0 1 617.99 414.08
  C 618.11 410.17 617.52 406.12 618.42 402.53
  Q 619.48 398.34 621.64 394.58
  A 0.08 0.08 0.0 0 0 621.54 394.47
  L 613.01 397.81
  Q 612.52 398.00 612.16 397.61
  L 610.91 396.21
  Q 610.60 395.86 610.89 395.50
  L 618.83 385.41
  Q 619.94 384.00 618.14 384.00
  L 617.03 384.00
  Q 616.62 384.00 616.80 383.63
  Q 619.98 377.00 625.54 372.21
  Q 625.98 371.83 626.56 371.73
  Q 631.18 370.91 632.95 366.67
  Q 633.15 366.17 633.59 365.85
  C 638.16 362.55 641.16 358.32 645.55 354.88
  C 646.86 353.85 650.51 349.91 651.77 349.69
  Q 652.25 349.61 652.57 349.27
  Q 655.35 346.36 658.92 344.59
  C 660.67 343.72 661.84 342.31 663.57 341.35
  Q 666.10 339.93 666.98 338.99
  C 668.32 337.55 670.40 334.01 672.02 333.54
  C 678.01 331.80 678.71 326.81 680.00 320.56
  Q 680.56 317.87 680.09 314.93
  C 678.35 303.93 677.61 293.65 679.76 283.53
  C 680.41 280.50 682.26 278.11 683.42 275.16
  C 685.89 268.86 691.22 263.32 691.85 256.53
  C 692.39 250.75 693.15 247.48 690.23 243.36
  C 689.69 242.60 689.72 242.63 688.78 242.85
  Q 688.38 242.95 688.37 242.54
  L 688.35 241.73
  Q 722.74 224.94 760.24 228.75
  Z"
/>
<path fill="#01e78e" d="
  M 368.16 318.53
  Q 367.85 320.29 367.69 317.16
  Q 367.65 316.42 367.14 316.96
  L 365.46 318.77
  Q 365.39 318.84 365.30 318.89
  Q 364.80 319.12 364.76 318.81
  Q 364.68 318.31 364.18 318.40
  L 344.76 322.00
  A 0.56 0.55 -81.2 0 1 344.17 321.19
  L 345.04 319.53
  Q 345.31 319.03 344.73 319.03
  C 339.19 319.10 323.06 318.38 322.28 323.62
  Q 322.20 324.11 321.71 324.17
  C 317.61 324.63 311.99 322.10 307.62 321.53
  Q 307.07 321.46 306.65 321.11
  Q 304.93 319.69 302.69 320.02
  A 0.40 0.40 0.0 0 1 302.26 319.48
  Q 302.36 319.19 302.69 319.19
  A 0.42 0.25 48.9 0 0 302.57 318.54
  C 299.52 316.61 297.64 314.03 294.61 312.06
  Q 294.22 311.81 293.75 311.85
  C 290.91 312.11 287.52 307.23 285.91 306.33
  C 280.66 303.39 279.91 299.75 276.03 295.99
  Q 275.66 295.62 275.55 295.12
  Q 274.74 291.50 271.42 289.88
  Q 270.93 289.64 271.04 289.11
  Q 271.61 286.30 269.28 284.68
  A 0.97 0.94 -74.8 0 1 268.88 283.96
  L 268.21 275.00
  L 267.94 230.07
  A 0.92 0.91 86.5 0 1 268.74 229.16
  C 280.68 227.79 293.45 227.64 304.88 229.99
  C 335.82 236.35 362.31 259.58 367.45 291.77
  Q 368.39 297.65 368.16 318.53
  Z"
/>
<path fill="#00636e" d="
  M 760.24 228.75
  L 760.29 763.63
  Q 760.29 764.04 759.88 764.05
  Q 755.46 764.15 748.67 764.65
  C 740.26 765.28 732.13 763.84 723.64 761.55
  Q 691.54 752.90 674.41 723.58
  Q 675.78 722.83 676.21 724.52
  Q 676.32 724.96 676.77 724.93
  Q 678.82 724.81 679.82 723.25
  Q 680.10 722.82 680.61 722.72
  Q 687.94 721.30 693.06 718.81
  C 696.37 717.21 698.55 713.39 700.90 711.33
  Q 704.28 708.36 707.71 705.41
  C 710.51 702.99 711.83 698.79 713.93 695.68
  C 717.17 690.88 719.19 685.62 722.21 680.85
  Q 723.81 678.31 725.36 675.78
  Q 725.57 675.44 725.51 675.04
  L 724.98 671.32
  Q 724.91 670.80 725.16 670.34
  C 726.09 668.61 727.48 667.05 727.82 665.05
  Q 728.76 659.50 731.12 654.41
  Q 731.35 653.91 731.54 654.42
  L 732.33 656.53
  Q 732.54 657.09 732.84 656.57
  Q 735.74 651.59 736.73 645.93
  A 0.43 0.42 33.0 0 1 737.50 645.77
  L 738.27 646.90
  Q 738.56 647.33 738.76 646.85
  L 742.53 638.21
  Q 742.76 637.69 742.41 637.23
  L 741.89 636.55
  Q 741.60 636.17 741.77 635.72
  Q 745.74 625.31 751.49 615.74
  Q 751.57 615.61 751.68 615.73
  L 751.94 616.06
  Q 752.23 616.41 752.28 615.95
  Q 752.67 612.41 756.10 611.12
  A 1.62 1.61 40.4 0 1 756.98 611.05
  Q 757.58 611.17 758.20 610.74
  Q 758.55 610.50 758.54 610.07
  C 758.47 606.85 759.19 603.28 759.20 600.41
  Q 759.31 556.09 759.23 511.74
  L 759.39 455.00
  L 759.04 369.75
  C 760.03 322.03 758.71 277.62 759.61 231.57
  Q 759.62 230.95 760.24 228.75
  Z"
/>
<path fill="#01d973" d="
  M 688.35 241.73
  L 688.37 242.54
  Q 688.38 242.95 688.78 242.85
  C 689.72 242.63 689.69 242.60 690.23 243.36
  C 693.15 247.48 692.39 250.75 691.85 256.53
  C 691.22 263.32 685.89 268.86 683.42 275.16
  C 682.26 278.11 680.41 280.50 679.76 283.53
  C 677.61 293.65 678.35 303.93 680.09 314.93
  Q 680.56 317.87 680.00 320.56
  C 678.71 326.81 678.01 331.80 672.02 333.54
  C 670.40 334.01 668.32 337.55 666.98 338.99
  Q 666.10 339.93 663.57 341.35
  C 661.84 342.31 660.67 343.72 658.92 344.59
  Q 655.35 346.36 652.57 349.27
  Q 652.25 349.61 651.77 349.69
  C 650.51 349.91 646.86 353.85 645.55 354.88
  C 641.16 358.32 638.16 362.55 633.59 365.85
  Q 633.15 366.17 632.95 366.67
  Q 631.18 370.91 626.56 371.73
  Q 625.98 371.83 625.54 372.21
  Q 619.98 377.00 616.80 383.63
  Q 616.62 384.00 617.03 384.00
  L 618.14 384.00
  Q 619.94 384.00 618.83 385.41
  L 610.89 395.50
  Q 610.60 395.86 610.91 396.21
  L 612.16 397.61
  Q 612.52 398.00 613.01 397.81
  L 621.54 394.47
  A 0.08 0.08 0.0 0 1 621.64 394.58
  Q 619.48 398.34 618.42 402.53
  C 617.52 406.12 618.11 410.17 617.99 414.08
  A 0.91 0.88 -72.3 0 0 618.36 414.83
  Q 621.19 416.90 620.45 420.32
  Q 620.35 420.78 620.80 420.66
  Q 620.99 420.61 621.15 420.67
  A 0.17 0.16 -45.3 0 1 621.15 420.98
  Q 620.58 421.20 620.65 421.65
  Q 620.74 422.16 620.29 421.90
  Q 620.04 421.76 620.02 421.53
  Q 619.98 421.19 619.71 421.40
  Q 618.05 422.74 619.50 424.04
  L 613.68 431.33
  Q 613.35 431.74 612.81 431.73
  C 577.17 430.74 541.63 432.09 506.04 431.20
  Q 505.53 431.19 505.71 430.71
  Q 506.92 427.48 508.23 425.49
  Q 513.48 417.56 524.11 402.62
  L 525.16 404.26
  A 0.59 0.58 -37.4 0 0 526.05 404.37
  Q 526.76 403.72 527.32 404.27
  Q 527.59 404.55 527.82 404.23
  Q 529.68 401.60 533.04 401.38
  Q 533.54 401.35 533.34 401.82
  Q 532.93 402.79 532.67 403.87
  A 0.18 0.18 0.0 0 0 533.00 404.00
  C 534.75 400.74 537.94 402.30 539.09 398.94
  A 1.20 1.19 87.8 0 1 539.74 398.23
  C 543.94 396.32 548.47 396.21 552.27 393.96
  Q 556.71 391.33 560.91 388.37
  C 563.38 386.62 564.11 384.28 567.15 382.70
  Q 570.86 380.77 573.50 377.50
  Q 573.80 377.12 574.27 377.01
  C 576.08 376.55 578.49 373.27 580.70 371.29
  Q 581.47 370.59 581.06 371.55
  L 579.70 374.70
  Q 579.51 375.15 579.90 374.86
  Q 585.13 371.08 590.24 367.14
  Q 590.68 366.80 590.89 366.28
  Q 592.80 361.46 597.31 359.10
  Q 597.77 358.85 598.29 358.94
  L 599.00 359.06
  Q 599.50 359.15 599.78 358.72
  C 600.75 357.17 607.98 347.96 608.03 347.38
  Q 608.06 346.97 608.32 346.66
  Q 612.50 341.62 617.39 337.34
  C 622.67 332.71 622.06 327.25 628.80 324.19
  A 1.24 1.22 88.4 0 0 629.45 323.49
  C 630.84 319.74 633.46 316.48 634.96 313.39
  C 636.18 310.86 637.24 308.93 638.03 306.00
  Q 638.47 304.34 639.74 303.11
  Q 640.09 302.77 640.05 302.27
  Q 639.74 298.87 641.80 297.32
  Q 646.86 293.53 648.53 291.29
  Q 650.36 288.82 653.14 287.76
  Q 653.54 287.61 653.74 287.24
  L 658.34 279.05
  Q 658.57 278.64 658.47 278.18
  Q 658.00 276.11 659.79 274.99
  Q 660.10 274.80 660.47 274.86
  C 661.13 274.97 661.53 274.54 661.66 273.87
  Q 662.19 271.01 664.65 269.27
  A 1.68 1.60 -7.6 0 0 665.23 268.55
  L 668.57 260.53
  A 1.02 0.99 45.9 0 0 668.57 259.76
  L 667.24 256.42
  Q 667.10 256.06 666.70 256.00
  L 666.37 255.96
  A 0.32 0.32 0.0 0 1 666.15 255.45
  Q 666.63 254.82 666.21 254.68
  Q 677.07 247.49 688.35 241.73
  Z"
/>
<path fill="#16eb75" d="
  M 666.21 254.68
  Q 666.63 254.82 666.15 255.45
  A 0.32 0.32 0.0 0 0 666.37 255.96
  L 666.70 256.00
  Q 667.10 256.06 667.24 256.42
  L 668.57 259.76
  A 1.02 0.99 45.9 0 1 668.57 260.53
  L 665.23 268.55
  A 1.68 1.60 -7.6 0 1 664.65 269.27
  Q 662.19 271.01 661.66 273.87
  C 661.53 274.54 661.13 274.97 660.47 274.86
  Q 660.10 274.80 659.79 274.99
  Q 658.00 276.11 658.47 278.18
  Q 658.57 278.64 658.34 279.05
  L 653.74 287.24
  Q 653.54 287.61 653.14 287.76
  Q 650.36 288.82 648.53 291.29
  Q 646.86 293.53 641.80 297.32
  Q 639.74 298.87 640.05 302.27
  Q 640.09 302.77 639.74 303.11
  Q 638.47 304.34 638.03 306.00
  C 637.24 308.93 636.18 310.86 634.96 313.39
  C 633.46 316.48 630.84 319.74 629.45 323.49
  A 1.24 1.22 88.4 0 1 628.80 324.19
  C 622.06 327.25 622.67 332.71 617.39 337.34
  Q 612.50 341.62 608.32 346.66
  Q 608.06 346.97 608.03 347.38
  C 607.98 347.96 600.75 357.17 599.78 358.72
  Q 599.50 359.15 599.00 359.06
  L 598.29 358.94
  Q 597.77 358.85 597.31 359.10
  Q 592.80 361.46 590.89 366.28
  Q 590.68 366.80 590.24 367.14
  Q 585.13 371.08 579.90 374.86
  Q 579.51 375.15 579.70 374.70
  L 581.06 371.55
  Q 581.47 370.59 580.70 371.29
  C 578.49 373.27 576.08 376.55 574.27 377.01
  Q 573.80 377.12 573.50 377.50
  Q 570.86 380.77 567.15 382.70
  C 564.11 384.28 563.38 386.62 560.91 388.37
  Q 556.71 391.33 552.27 393.96
  C 548.47 396.21 543.94 396.32 539.74 398.23
  A 1.20 1.19 87.8 0 0 539.09 398.94
  C 537.94 402.30 534.75 400.74 533.00 404.00
  A 0.18 0.18 0.0 0 1 532.67 403.87
  Q 532.93 402.79 533.34 401.82
  Q 533.54 401.35 533.04 401.38
  Q 529.68 401.60 527.82 404.23
  Q 527.59 404.55 527.32 404.27
  Q 526.76 403.72 526.05 404.37
  A 0.59 0.58 -37.4 0 1 525.16 404.26
  L 524.11 402.62
  Q 538.01 384.35 552.11 366.14
  C 573.10 339.04 596.69 313.64 621.55 290.05
  Q 642.33 270.32 666.21 254.68
  Z"
/>
<path fill="#16eb75" d="
  M 268.21 275.00
  L 268.88 283.96
  A 0.97 0.94 -74.8 0 0 269.28 284.68
  Q 271.61 286.30 271.04 289.11
  Q 270.93 289.64 271.42 289.88
  Q 274.74 291.50 275.55 295.12
  Q 275.66 295.62 276.03 295.99
  C 279.91 299.75 280.66 303.39 285.91 306.33
  C 287.52 307.23 290.91 312.11 293.75 311.85
  Q 294.22 311.81 294.61 312.06
  C 297.64 314.03 299.52 316.61 302.57 318.54
  A 0.42 0.25 48.9 0 1 302.69 319.19
  Q 302.36 319.19 302.26 319.48
  A 0.40 0.40 0.0 0 0 302.69 320.02
  Q 304.93 319.69 306.65 321.11
  Q 307.07 321.46 307.62 321.53
  C 311.99 322.10 317.61 324.63 321.71 324.17
  Q 322.20 324.11 322.28 323.62
  C 323.06 318.38 339.19 319.10 344.73 319.03
  Q 345.31 319.03 345.04 319.53
  L 344.17 321.19
  A 0.56 0.55 -81.2 0 0 344.76 322.00
  L 364.18 318.40
  Q 364.68 318.31 364.76 318.81
  Q 364.80 319.12 365.30 318.89
  Q 365.39 318.84 365.46 318.77
  L 367.14 316.96
  Q 367.65 316.42 367.69 317.16
  Q 367.85 320.29 368.16 318.53
  L 368.36 454.72
  A 1.16 1.16 0.0 0 0 369.52 455.88
  L 427.01 455.69
  L 418.48 456.28
  A 0.18 0.17 45.3 0 0 418.48 456.63
  Q 419.61 456.74 420.75 456.87
  Q 421.27 456.93 421.14 457.43
  L 421.03 457.87
  A 0.54 0.54 0.0 0 0 421.43 458.53
  L 423.80 459.14
  Q 424.74 459.38 423.79 459.56
  L 422.49 459.81
  Q 421.12 460.07 422.50 460.32
  Q 432.98 462.22 439.65 470.14
  Q 440.99 471.73 442.81 472.67
  C 446.60 474.64 449.40 477.47 453.03 479.66
  Q 453.99 480.25 452.89 480.02
  Q 451.58 479.75 450.46 480.35
  A 0.51 0.50 -35.4 0 0 450.32 481.13
  C 451.77 482.75 453.02 484.07 453.88 486.14
  Q 457.86 495.78 464.08 504.09
  Q 466.08 506.77 467.00 509.42
  Q 470.32 519.04 472.57 528.97
  C 473.12 531.41 472.37 533.63 472.70 536.22
  A 1.27 1.27 0.0 0 1 472.34 537.28
  L 471.40 538.22
  Q 471.08 538.55 471.54 538.60
  L 473.38 538.82
  Q 473.98 538.89 473.48 539.24
  Q 473.30 539.37 472.98 539.52
  C 472.41 539.38 470.97 539.79 472.26 540.44
  L 369.23 540.62
  Q 368.54 540.62 368.54 541.30
  L 368.14 602.47
  Q 368.14 602.96 367.83 603.33
  Q 362.29 609.91 352.08 618.57
  Q 340.29 628.55 324.56 629.31
  A 0.93 0.92 0.7 0 0 323.68 630.16
  Q 323.39 633.67 327.51 633.34
  C 343.50 632.07 352.03 625.10 364.58 613.73
  Q 375.25 604.07 384.48 593.02
  C 392.13 583.87 400.90 570.61 409.52 559.63
  A 2.21 2.20 18.8 0 1 411.26 558.78
  L 513.23 559.05
  Q 513.66 559.05 513.43 559.41
  L 483.10 606.29
  Q 483.18 604.15 484.62 602.61
  A 2.32 2.20 77.2 0 0 485.12 601.77
  Q 485.81 599.74 488.28 597.03
  Q 489.37 595.84 491.67 591.36
  Q 492.03 590.67 491.45 591.19
  L 490.55 592.03
  Q 489.97 592.56 489.96 591.77
  Q 489.94 587.75 487.13 584.80
  A 0.83 0.82 -55.4 0 0 485.77 585.05
  Q 484.98 586.91 483.06 587.35
  Q 482.79 587.41 482.99 587.61
  Q 483.11 587.73 483.24 587.86
  A 0.18 0.18 0.0 0 1 483.16 588.17
  Q 480.68 588.74 478.39 591.15
  Q 472.52 597.34 463.56 600.53
  Q 460.36 601.67 458.49 605.91
  Q 458.26 606.43 457.73 606.61
  Q 454.98 607.55 452.17 606.83
  Q 451.63 606.69 451.63 607.25
  Q 451.64 611.04 449.54 614.10
  Q 449.30 614.45 448.89 614.46
  Q 448.09 614.48 447.72 615.17
  Q 447.50 615.58 447.10 615.82
  Q 445.12 617.00 442.83 617.24
  Q 442.31 617.29 441.89 617.59
  Q 438.61 619.92 434.80 621.14
  Q 434.17 621.34 433.88 621.95
  L 432.32 625.22
  Q 432.16 625.57 431.83 625.77
  Q 428.96 627.54 425.61 627.83
  Q 425.10 627.88 424.64 628.11
  L 417.58 631.78
  Q 417.11 632.02 416.87 632.50
  L 415.99 634.26
  A 0.74 0.74 0.0 0 1 415.32 634.68
  Q 410.19 634.63 408.65 639.29
  Q 408.48 639.79 408.02 640.02
  C 405.61 641.25 402.98 641.38 400.93 642.54
  C 398.27 644.04 396.67 646.21 394.05 647.69
  C 391.17 649.32 389.26 651.64 386.42 653.04
  Q 383.83 654.33 381.31 655.74
  Q 380.89 655.97 381.01 655.51
  Q 381.20 654.78 381.66 654.17
  A 0.43 0.43 0.0 0 0 381.03 653.59
  Q 374.60 659.38 366.92 663.36
  Q 366.44 663.61 366.16 664.08
  Q 363.31 668.95 360.51 670.24
  C 355.34 672.62 350.62 676.64 346.36 679.05
  Q 335.48 685.22 324.94 691.93
  Q 322.70 693.36 314.33 695.76
  C 309.76 697.07 305.02 704.69 302.74 708.64
  Q 302.48 709.09 302.01 709.29
  C 297.39 711.29 296.69 713.02 294.80 717.43
  A 2.09 2.04 84.3 0 1 294.09 718.32
  L 290.48 720.88
  A 0.94 0.93 -14.8 0 0 290.10 721.52
  L 289.53 725.94
  Q 289.46 726.45 289.05 726.75
  C 283.80 730.63 285.32 734.85 283.77 740.19
  Q 283.50 741.13 284.19 740.44
  L 286.31 738.32
  Q 286.69 737.94 286.59 738.47
  L 285.51 744.28
  Q 285.45 744.60 285.18 744.77
  L 282.12 746.76
  A 0.58 0.58 0.0 0 0 281.87 747.40
  Q 282.60 750.08 282.77 752.83
  Q 282.81 753.38 282.46 753.81
  Q 279.41 757.52 283.02 760.51
  A 0.36 0.36 0.0 0 1 282.93 761.12
  L 279.95 762.36
  Q 279.54 762.53 279.95 762.68
  Q 281.21 763.13 282.42 762.77
  Q 283.21 762.54 282.82 763.26
  L 281.99 764.79
  L 270.81 764.93
  A 2.70 2.69 89.6 0 1 268.08 762.23
  L 268.21 275.00
  Z"
/>
<path fill="#00a780" d="
  M 759.04 369.75
  L 759.39 455.00
  L 758.89 466.38
  A 0.77 0.77 0.0 0 1 757.53 466.83
  Q 756.32 465.35 754.13 466.83
  C 744.32 473.45 737.26 480.76 729.41 490.63
  C 725.63 495.38 721.83 500.49 717.92 503.01
  C 713.92 505.59 712.76 510.54 708.72 513.36
  Q 706.21 515.11 704.07 517.29
  Q 703.98 517.38 703.99 517.26
  Q 704.00 517.12 704.01 516.96
  Q 704.03 516.63 703.74 516.79
  L 699.25 519.11
  Q 698.77 519.36 698.49 519.82
  Q 697.53 521.38 696.54 522.94
  C 694.53 526.09 689.93 528.06 687.85 530.35
  C 686.70 531.61 685.75 535.00 683.87 536.50
  Q 682.91 537.27 681.87 537.97
  A 1.47 1.45 -7.6 0 0 681.31 538.69
  Q 680.38 541.30 679.05 543.72
  Q 679.03 543.76 679.06 543.81
  Q 679.14 543.91 679.23 544.00
  Q 679.44 544.21 679.24 544.42
  C 675.37 548.54 672.80 552.68 666.86 553.99
  A 0.44 0.43 -19.2 0 1 666.38 553.76
  L 666.20 553.37
  Q 666.16 553.30 666.10 553.34
  Q 665.96 553.43 665.93 553.64
  Q 665.92 553.70 665.89 553.65
  Q 665.70 553.31 665.47 553.25
  L 665.05 541.21
  Q 665.03 540.67 664.49 540.59
  L 661.76 540.22
  C 660.78 538.63 655.10 539.25 653.27 539.23
  Q 652.73 537.59 651.54 537.78
  A 1.21 1.20 88.9 0 1 650.16 536.45
  Q 651.43 525.24 654.15 514.28
  Q 654.20 514.07 654.28 514.26
  Q 654.56 514.95 655.27 515.42
  Q 656.43 516.20 656.59 514.81
  C 657.19 509.40 658.07 505.19 660.88 500.25
  C 663.74 495.20 666.63 490.48 668.80 485.07
  Q 669.63 483.02 671.57 481.64
  A 1.04 1.04 0.0 0 0 672.00 480.80
  L 672.00 480.31
  Q 672.00 479.85 672.23 479.46
  Q 675.78 473.57 678.44 467.23
  Q 679.16 465.54 681.38 463.88
  Q 681.77 463.58 681.96 463.13
  L 683.60 459.18
  Q 683.71 458.91 683.61 458.64
  Q 683.56 458.51 683.51 458.36
  A 0.05 0.05 0.0 0 1 683.58 458.30
  L 683.82 458.43
  Q 683.95 458.49 684.26 457.98
  Q 684.82 457.07 683.83 456.68
  Q 683.24 456.44 683.66 455.96
  Q 687.38 451.62 689.83 446.46
  C 690.52 444.99 691.27 444.70 692.64 444.08
  A 2.01 1.97 -86.0 0 0 693.51 443.31
  L 699.08 434.13
  A 0.50 0.49 -44.8 0 1 699.93 434.13
  Q 700.55 435.14 701.70 435.21
  A 0.49 0.46 -10.9 0 1 702.09 435.46
  L 702.27 435.79
  Q 702.35 435.95 702.46 435.80
  L 703.04 435.03
  A 0.52 0.52 0.0 0 1 703.97 435.33
  L 704.01 436.74
  Q 704.04 437.67 704.56 436.91
  C 708.80 430.82 713.76 424.21 720.41 420.64
  Q 728.32 416.38 736.94 413.69
  C 740.31 412.64 741.85 412.95 745.07 413.92
  Q 749.05 415.11 754.99 413.97
  Q 756.83 413.62 757.16 415.51
  Q 757.25 416.00 757.75 416.00
  L 758.48 416.00
  Q 758.99 416.00 758.99 415.49
  L 758.97 375.55
  L 759.04 369.75
  Z"
/>
<path fill="#00b681" d="
  M 758.97 375.55
  L 758.99 415.49
  Q 758.99 416.00 758.48 416.00
  L 757.75 416.00
  Q 757.25 416.00 757.16 415.51
  Q 756.83 413.62 754.99 413.97
  Q 749.05 415.11 745.07 413.92
  C 741.85 412.95 740.31 412.64 736.94 413.69
  Q 728.32 416.38 720.41 420.64
  C 713.76 424.21 708.80 430.82 704.56 436.91
  Q 704.04 437.67 704.01 436.74
  L 703.97 435.33
  A 0.52 0.52 0.0 0 0 703.04 435.03
  L 702.46 435.80
  Q 702.35 435.95 702.27 435.79
  L 702.09 435.46
  A 0.49 0.46 -10.9 0 0 701.70 435.21
  Q 700.55 435.14 699.93 434.13
  A 0.50 0.49 -44.8 0 0 699.08 434.13
  L 693.51 443.31
  A 2.01 1.97 -86.0 0 1 692.64 444.08
  C 691.27 444.70 690.52 444.99 689.83 446.46
  Q 687.38 451.62 683.66 455.96
  Q 683.24 456.44 683.83 456.68
  Q 684.82 457.07 684.26 457.98
  Q 683.95 458.49 683.82 458.43
  L 683.58 458.30
  A 0.05 0.05 0.0 0 0 683.51 458.36
  Q 683.56 458.51 683.61 458.64
  Q 683.71 458.91 683.60 459.18
  L 681.96 463.13
  Q 681.77 463.58 681.38 463.88
  Q 679.16 465.54 678.44 467.23
  Q 675.78 473.57 672.23 479.46
  Q 672.00 479.85 672.00 480.31
  L 672.00 480.80
  A 1.04 1.04 0.0 0 1 671.57 481.64
  Q 669.63 483.02 668.80 485.07
  C 666.63 490.48 663.74 495.20 660.88 500.25
  C 658.07 505.19 657.19 509.40 656.59 514.81
  Q 656.43 516.20 655.27 515.42
  Q 654.56 514.95 654.28 514.26
  Q 654.20 514.07 654.15 514.28
  Q 651.43 525.24 650.16 536.45
  A 1.21 1.20 88.9 0 0 651.54 537.78
  Q 652.73 537.59 653.27 539.23
  L 601.05 539.49
  Q 600.35 539.49 601.04 539.35
  Q 602.80 538.99 604.00 539.00
  Q 612.62 539.02 622.87 539.00
  Q 626.07 538.99 623.10 537.79
  C 620.95 536.93 620.94 529.62 620.14 527.07
  Q 620.00 526.61 620.45 526.48
  Q 621.76 526.09 622.32 524.79
  Q 622.55 524.24 622.18 523.78
  Q 620.66 521.94 621.15 519.56
  Q 621.32 518.74 620.55 519.07
  Q 619.66 519.45 618.96 520.23
  Q 618.50 520.74 618.44 520.05
  Q 617.72 512.41 615.24 505.11
  A 0.44 0.44 0.0 0 1 615.81 504.55
  Q 616.72 504.88 617.52 504.14
  Q 617.79 503.89 617.71 503.53
  L 616.85 499.65
  Q 616.80 499.42 616.56 499.38
  L 615.38 499.18
  Q 614.90 499.10 614.82 498.63
  Q 614.11 494.47 614.57 490.29
  A 0.31 0.31 0.0 0 0 614.13 489.97
  L 611.01 491.35
  Q 610.34 491.65 610.44 490.93
  L 611.16 485.80
  Q 611.22 485.38 610.80 485.32
  L 608.41 484.96
  Q 607.93 484.88 607.94 484.40
  L 608.14 475.25
  Q 608.17 473.59 609.70 474.24
  L 611.67 475.08
  Q 612.21 475.31 612.19 474.73
  C 611.96 468.68 605.68 463.78 600.63 461.95
  Q 598.22 461.07 591.61 460.69
  Q 585.48 460.34 579.43 459.01
  Q 577.28 458.54 576.03 456.02
  L 664.47 455.67
  Q 664.98 455.67 664.98 455.16
  L 665.00 433.24
  Q 665.18 433.33 665.32 433.69
  Q 665.52 434.21 665.69 433.68
  L 665.79 433.39
  Q 665.87 433.13 666.10 433.29
  L 667.41 434.21
  Q 667.82 434.50 668.18 434.14
  Q 669.66 432.64 671.58 433.62
  Q 672.00 433.83 672.00 434.31
  L 672.00 435.25
  Q 672.00 435.96 672.33 435.33
  L 672.77 434.48
  Q 673.00 434.03 673.48 433.85
  C 676.26 432.80 678.63 432.15 680.25 429.42
  Q 682.80 425.09 684.45 420.35
  Q 684.72 419.57 683.91 419.73
  L 683.10 419.89
  Q 682.46 420.01 682.72 419.41
  L 683.91 416.60
  Q 684.16 416.00 684.82 416.00
  L 685.72 416.00
  Q 686.24 416.00 686.65 415.68
  C 688.92 413.93 692.26 409.18 694.79 408.87
  Q 695.32 408.80 695.55 408.32
  Q 697.57 404.18 702.26 404.60
  Q 702.85 404.66 702.66 404.09
  L 702.31 403.08
  Q 702.14 402.56 702.44 402.11
  C 705.51 397.46 709.08 394.01 712.79 389.91
  C 719.17 382.87 722.90 371.65 734.81 374.10
  C 741.33 375.45 748.84 374.14 755.29 372.77
  Q 755.83 372.66 756.23 373.03
  L 758.97 375.55
  Z"
/>
<path fill="#019070" d="
  M 759.39 455.00
  L 759.23 511.74
  L 758.63 520.05
  A 0.87 0.87 0.0 0 1 757.08 520.53
  C 755.67 518.73 750.25 525.32 749.16 526.35
  C 746.15 529.20 746.30 532.29 741.53 533.68
  Q 741.04 533.83 740.75 534.25
  C 739.24 536.45 735.86 540.87 735.95 543.52
  Q 735.97 544.00 735.49 544.00
  L 735.08 544.00
  Q 734.67 544.00 734.44 544.34
  L 731.81 548.29
  Q 731.48 548.79 731.39 549.37
  C 731.00 552.11 729.20 553.43 727.98 555.19
  C 720.51 565.94 711.69 576.73 702.56 587.18
  C 697.02 593.50 694.23 602.54 691.05 611.06
  C 689.16 616.13 685.23 621.19 683.08 625.65
  Q 677.27 637.72 672.52 650.26
  Q 671.60 652.71 669.11 656.02
  Q 668.73 656.54 668.29 656.07
  Q 667.60 655.35 667.17 656.41
  Q 667.01 656.82 667.00 656.38
  Q 666.99 656.19 667.01 655.99
  A 0.27 0.27 0.0 0 0 666.58 655.74
  Q 665.69 656.38 665.88 657.70
  Q 665.84 655.77 665.50 653.99
  L 665.47 553.25
  Q 665.70 553.31 665.89 553.65
  Q 665.92 553.70 665.93 553.64
  Q 665.96 553.43 666.10 553.34
  Q 666.16 553.30 666.20 553.37
  L 666.38 553.76
  A 0.44 0.43 -19.2 0 0 666.86 553.99
  C 672.80 552.68 675.37 548.54 679.24 544.42
  Q 679.44 544.21 679.23 544.00
  Q 679.14 543.91 679.06 543.81
  Q 679.03 543.76 679.05 543.72
  Q 680.38 541.30 681.31 538.69
  A 1.47 1.45 -7.6 0 1 681.87 537.97
  Q 682.91 537.27 683.87 536.50
  C 685.75 535.00 686.70 531.61 687.85 530.35
  C 689.93 528.06 694.53 526.09 696.54 522.94
  Q 697.53 521.38 698.49 519.82
  Q 698.77 519.36 699.25 519.11
  L 703.74 516.79
  Q 704.03 516.63 704.01 516.96
  Q 704.00 517.12 703.99 517.26
  Q 703.98 517.38 704.07 517.29
  Q 706.21 515.11 708.72 513.36
  C 712.76 510.54 713.92 505.59 717.92 503.01
  C 721.83 500.49 725.63 495.38 729.41 490.63
  C 737.26 480.76 744.32 473.45 754.13 466.83
  Q 756.32 465.35 757.53 466.83
  A 0.77 0.77 0.0 0 0 758.89 466.38
  L 759.39 455.00
  Z"
/>
<path fill="#01d973" d="
  M 427.01 455.69
  L 530.01 456.01
  Q 529.26 456.30 528.28 456.26
  Q 527.84 456.24 528.22 456.47
  L 528.57 456.68
  Q 529.70 457.35 528.50 457.01
  Q 528.07 456.89 527.92 457.14
  Q 527.64 457.59 528.16 457.51
  Q 529.03 457.37 529.22 458.24
  Q 529.29 458.58 529.05 458.83
  L 528.83 459.04
  Q 528.42 459.45 528.97 459.64
  C 531.60 460.54 534.43 460.08 536.74 460.37
  Q 546.59 461.62 556.50 460.38
  Q 560.00 459.94 563.07 459.99
  A 2.14 2.14 0.0 0 1 565.16 462.32
  Q 564.28 472.38 562.63 482.79
  C 562.12 486.04 560.97 490.40 560.51 494.31
  Q 560.50 494.43 560.62 494.41
  Q 560.74 494.39 560.87 494.35
  Q 561.01 494.32 560.99 494.46
  Q 559.73 501.71 559.92 509.06
  Q 559.94 509.63 559.52 510.03
  Q 552.90 516.43 555.09 525.73
  Q 555.43 527.19 554.77 529.99
  Q 554.14 532.69 555.77 537.42
  Q 555.93 537.91 555.43 538.02
  Q 554.24 538.30 554.16 539.29
  Q 554.14 539.57 553.87 539.57
  L 472.98 539.52
  Q 473.30 539.37 473.48 539.24
  Q 473.98 538.89 473.38 538.82
  L 471.54 538.60
  Q 471.08 538.55 471.40 538.22
  L 472.34 537.28
  A 1.27 1.27 0.0 0 0 472.70 536.22
  C 472.37 533.63 473.12 531.41 472.57 528.97
  Q 470.32 519.04 467.00 509.42
  Q 466.08 506.77 464.08 504.09
  Q 457.86 495.78 453.88 486.14
  C 453.02 484.07 451.77 482.75 450.32 481.13
  A 0.51 0.50 -35.4 0 1 450.46 480.35
  Q 451.58 479.75 452.89 480.02
  Q 453.99 480.25 453.03 479.66
  C 449.40 477.47 446.60 474.64 442.81 472.67
  Q 440.99 471.73 439.65 470.14
  Q 432.98 462.22 422.50 460.32
  Q 421.12 460.07 422.49 459.81
  L 423.79 459.56
  Q 424.74 459.38 423.80 459.14
  L 421.43 458.53
  A 0.54 0.54 0.0 0 1 421.03 457.87
  L 421.14 457.43
  Q 421.27 456.93 420.75 456.87
  Q 419.61 456.74 418.48 456.63
  A 0.18 0.17 45.3 0 1 418.48 456.28
  L 427.01 455.69
  Z"
/>
<path fill="#01c777" d="
  M 530.01 456.01
  L 576.03 456.02
  Q 577.28 458.54 579.43 459.01
  Q 585.48 460.34 591.61 460.69
  Q 598.22 461.07 600.63 461.95
  C 605.68 463.78 611.96 468.68 612.19 474.73
  Q 612.21 475.31 611.67 475.08
  L 609.70 474.24
  Q 608.17 473.59 608.14 475.25
  L 607.94 484.40
  Q 607.93 484.88 608.41 484.96
  L 610.80 485.32
  Q 611.22 485.38 611.16 485.80
  L 610.44 490.93
  Q 610.34 491.65 611.01 491.35
  L 614.13 489.97
  A 0.31 0.31 0.0 0 1 614.57 490.29
  Q 614.11 494.47 614.82 498.63
  Q 614.90 499.10 615.38 499.18
  L 616.56 499.38
  Q 616.80 499.42 616.85 499.65
  L 617.71 503.53
  Q 617.79 503.89 617.52 504.14
  Q 616.72 504.88 615.81 504.55
  A 0.44 0.44 0.0 0 0 615.24 505.11
  Q 617.72 512.41 618.44 520.05
  Q 618.50 520.74 618.96 520.23
  Q 619.66 519.45 620.55 519.07
  Q 621.32 518.74 621.15 519.56
  Q 620.66 521.94 622.18 523.78
  Q 622.55 524.24 622.32 524.79
  Q 621.76 526.09 620.45 526.48
  Q 620.00 526.61 620.14 527.07
  C 620.94 529.62 620.95 536.93 623.10 537.79
  Q 626.07 538.99 622.87 539.00
  Q 612.62 539.02 604.00 539.00
  Q 602.80 538.99 601.04 539.35
  Q 600.35 539.49 601.05 539.49
  L 653.27 539.23
  C 655.10 539.25 660.78 538.63 661.76 540.22
  Q 661.37 540.21 661.03 540.35
  A 2.10 2.04 33.7 0 1 660.28 540.49
  L 472.26 540.44
  C 470.97 539.79 472.41 539.38 472.98 539.52
  L 553.87 539.57
  Q 554.14 539.57 554.16 539.29
  Q 554.24 538.30 555.43 538.02
  Q 555.93 537.91 555.77 537.42
  Q 554.14 532.69 554.77 529.99
  Q 555.43 527.19 555.09 525.73
  Q 552.90 516.43 559.52 510.03
  Q 559.94 509.63 559.92 509.06
  Q 559.73 501.71 560.99 494.46
  Q 561.01 494.32 560.87 494.35
  Q 560.74 494.39 560.62 494.41
  Q 560.50 494.43 560.51 494.31
  C 560.97 490.40 562.12 486.04 562.63 482.79
  Q 564.28 472.38 565.16 462.32
  A 2.14 2.14 0.0 0 0 563.07 459.99
  Q 560.00 459.94 556.50 460.38
  Q 546.59 461.62 536.74 460.37
  C 534.43 460.08 531.60 460.54 528.97 459.64
  Q 528.42 459.45 528.83 459.04
  L 529.05 458.83
  Q 529.29 458.58 529.22 458.24
  Q 529.03 457.37 528.16 457.51
  Q 527.64 457.59 527.92 457.14
  Q 528.07 456.89 528.50 457.01
  Q 529.70 457.35 528.57 456.68
  L 528.22 456.47
  Q 527.84 456.24 528.28 456.26
  Q 529.26 456.30 530.01 456.01
  Z"
/>
<path fill="#01776c" d="
  M 759.23 511.74
  Q 759.31 556.09 759.20 600.41
  C 759.19 603.28 758.47 606.85 758.54 610.07
  Q 758.55 610.50 758.20 610.74
  Q 757.58 611.17 756.98 611.05
  A 1.62 1.61 40.4 0 0 756.10 611.12
  Q 752.67 612.41 752.28 615.95
  Q 752.23 616.41 751.94 616.06
  L 751.68 615.73
  Q 751.57 615.61 751.49 615.74
  Q 745.74 625.31 741.77 635.72
  Q 741.60 636.17 741.89 636.55
  L 742.41 637.23
  Q 742.76 637.69 742.53 638.21
  L 738.76 646.85
  Q 738.56 647.33 738.27 646.90
  L 737.50 645.77
  A 0.43 0.42 33.0 0 0 736.73 645.93
  Q 735.74 651.59 732.84 656.57
  Q 732.54 657.09 732.33 656.53
  L 731.54 654.42
  Q 731.35 653.91 731.12 654.41
  Q 728.76 659.50 727.82 665.05
  C 727.48 667.05 726.09 668.61 725.16 670.34
  Q 724.91 670.80 724.98 671.32
  L 725.51 675.04
  Q 725.57 675.44 725.36 675.78
  Q 723.81 678.31 722.21 680.85
  C 719.19 685.62 717.17 690.88 713.93 695.68
  C 711.83 698.79 710.51 702.99 707.71 705.41
  Q 704.28 708.36 700.90 711.33
  C 698.55 713.39 696.37 717.21 693.06 718.81
  Q 687.94 721.30 680.61 722.72
  Q 680.10 722.82 679.82 723.25
  Q 678.82 724.81 676.77 724.93
  Q 676.32 724.96 676.21 724.52
  Q 675.78 722.83 674.41 723.58
  Q 664.89 706.93 665.34 687.90
  C 665.61 676.60 665.50 665.30 665.50 653.99
  Q 665.84 655.77 665.88 657.70
  Q 665.69 656.38 666.58 655.74
  A 0.27 0.27 0.0 0 1 667.01 655.99
  Q 666.99 656.19 667.00 656.38
  Q 667.01 656.82 667.17 656.41
  Q 667.60 655.35 668.29 656.07
  Q 668.73 656.54 669.11 656.02
  Q 671.60 652.71 672.52 650.26
  Q 677.27 637.72 683.08 625.65
  C 685.23 621.19 689.16 616.13 691.05 611.06
  C 694.23 602.54 697.02 593.50 702.56 587.18
  C 711.69 576.73 720.51 565.94 727.98 555.19
  C 729.20 553.43 731.00 552.11 731.39 549.37
  Q 731.48 548.79 731.81 548.29
  L 734.44 544.34
  Q 734.67 544.00 735.08 544.00
  L 735.49 544.00
  Q 735.97 544.00 735.95 543.52
  C 735.86 540.87 739.24 536.45 740.75 534.25
  Q 741.04 533.83 741.53 533.68
  C 746.30 532.29 746.15 529.20 749.16 526.35
  C 750.25 525.32 755.67 518.73 757.08 520.53
  A 0.87 0.87 0.0 0 0 758.63 520.05
  L 759.23 511.74
  Z"
/>
<path fill="#01e78e" d="
  M 483.10 606.29
  Q 476.98 615.36 463.63 631.64
  Q 432.42 669.71 402.18 699.79
  C 383.37 718.50 362.61 733.87 339.07 746.83
  Q 312.03 761.71 281.99 764.79
  L 282.82 763.26
  Q 283.21 762.54 282.42 762.77
  Q 281.21 763.13 279.95 762.68
  Q 279.54 762.53 279.95 762.36
  L 282.93 761.12
  A 0.36 0.36 0.0 0 0 283.02 760.51
  Q 279.41 757.52 282.46 753.81
  Q 282.81 753.38 282.77 752.83
  Q 282.60 750.08 281.87 747.40
  A 0.58 0.58 0.0 0 1 282.12 746.76
  L 285.18 744.77
  Q 285.45 744.60 285.51 744.28
  L 286.59 738.47
  Q 286.69 737.94 286.31 738.32
  L 284.19 740.44
  Q 283.50 741.13 283.77 740.19
  C 285.32 734.85 283.80 730.63 289.05 726.75
  Q 289.46 726.45 289.53 725.94
  L 290.10 721.52
  A 0.94 0.93 -14.8 0 1 290.48 720.88
  L 294.09 718.32
  A 2.09 2.04 84.3 0 0 294.80 717.43
  C 296.69 713.02 297.39 711.29 302.01 709.29
  Q 302.48 709.09 302.74 708.64
  C 305.02 704.69 309.76 697.07 314.33 695.76
  Q 322.70 693.36 324.94 691.93
  Q 335.48 685.22 346.36 679.05
  C 350.62 676.64 355.34 672.62 360.51 670.24
  Q 363.31 668.95 366.16 664.08
  Q 366.44 663.61 366.92 663.36
  Q 374.60 659.38 381.03 653.59
  A 0.43 0.43 0.0 0 1 381.66 654.17
  Q 381.20 654.78 381.01 655.51
  Q 380.89 655.97 381.31 655.74
  Q 383.83 654.33 386.42 653.04
  C 389.26 651.64 391.17 649.32 394.05 647.69
  C 396.67 646.21 398.27 644.04 400.93 642.54
  C 402.98 641.38 405.61 641.25 408.02 640.02
  Q 408.48 639.79 408.65 639.29
  Q 410.19 634.63 415.32 634.68
  A 0.74 0.74 0.0 0 0 415.99 634.26
  L 416.87 632.50
  Q 417.11 632.02 417.58 631.78
  L 424.64 628.11
  Q 425.10 627.88 425.61 627.83
  Q 428.96 627.54 431.83 625.77
  Q 432.16 625.57 432.32 625.22
  L 433.88 621.95
  Q 434.17 621.34 434.80 621.14
  Q 438.61 619.92 441.89 617.59
  Q 442.31 617.29 442.83 617.24
  Q 445.12 617.00 447.10 615.82
  Q 447.50 615.58 447.72 615.17
  Q 448.09 614.48 448.89 614.46
  Q 449.30 614.45 449.54 614.10
  Q 451.64 611.04 451.63 607.25
  Q 451.63 606.69 452.17 606.83
  Q 454.98 607.55 457.73 606.61
  Q 458.26 606.43 458.49 605.91
  Q 460.36 601.67 463.56 600.53
  Q 472.52 597.34 478.39 591.15
  Q 480.68 588.74 483.16 588.17
  A 0.18 0.18 0.0 0 0 483.24 587.86
  Q 483.11 587.73 482.99 587.61
  Q 482.79 587.41 483.06 587.35
  Q 484.98 586.91 485.77 585.05
  A 0.83 0.82 -55.4 0 1 487.13 584.80
  Q 489.94 587.75 489.96 591.77
  Q 489.97 592.56 490.55 592.03
  L 491.45 591.19
  Q 492.03 590.67 491.67 591.36
  Q 489.37 595.84 488.28 597.03
  Q 485.81 599.74 485.12 601.77
  A 2.32 2.20 77.2 0 1 484.62 602.61
  Q 483.18 604.15 483.10 606.29
  Z"
/>
<path fill="#00636e" d="
  M 6.44 1024.00
  L 0.00 1024.00
  L 0.00 1013.93
  L 6.07 1013.54
  Q 6.63 1013.50 6.62 1014.06
  L 6.44 1024.00
  Z"
/>
</svg>
