<?xml version="1.0" encoding="UTF-8" standalone="no"?>
<!DOCTYPE svg PUBLIC "-//W3C//DTD SVG 1.1//EN" "http://www.w3.org/Graphics/SVG/1.1/DTD/svg11.dtd">
<svg xmlns="http://www.w3.org/2000/svg" version="1.1" viewBox="0.00 0.00 500.00 500.00">
<g stroke-width="2.00" fill="none" stroke-linecap="butt">
<path stroke="#09eb82" vector-effect="non-scaling-stroke" d="
  M 180.00 222.46
  Q 179.98 222.48 179.96 222.50"
/>
<path stroke="#16f07b" vector-effect="non-scaling-stroke" d="
  M 179.96 222.50
  Q 178.62 221.39 179.05 219.40
  Q 179.19 218.75 178.52 218.75
  L 175.55 218.75
  Q 175.14 218.75 174.85 218.45
  C 171.82 215.28 167.50 213.66 164.99 210.52
  C 163.48 208.64 161.84 205.36 159.89 204.04
  C 157.94 202.71 156.42 202.09 154.68 200.34
  C 152.45 198.10 149.91 196.58 147.70 194.25
  Q 144.79 191.19 141.05 189.06
  A 0.24 0.23 37.3 0 0 140.78 189.09
  L 140.56 189.31
  Q 140.48 189.39 140.37 189.35
  Q 139.25 188.89 139.21 187.76
  Q 139.21 187.51 139.46 187.50
  Q 139.62 187.50 139.79 187.51
  Q 140.18 187.52 140.03 187.16
  Q 139.19 185.24 137.87 183.59
  A 0.36 0.35 -73.0 0 0 137.26 183.92
  L 138.25 187.17
  Q 138.36 187.51 138.00 187.50
  Q 137.87 187.50 137.73 187.49
  A 0.51 0.51 0.0 0 0 137.51 188.47
  Q 139.80 189.31 139.53 191.52
  Q 139.43 192.31 138.79 191.84
  L 137.42 190.82
  Q 137.05 190.55 136.85 190.96
  Q 136.76 191.13 136.67 191.32
  Q 136.47 191.72 136.36 191.28
  L 133.92 181.71
  A 1.39 1.33 -75.2 0 0 133.56 181.06
  C 131.30 178.82 133.21 175.99 130.99 173.98"
/>
<path stroke="#05d67e" vector-effect="non-scaling-stroke" d="
  M 276.01 222.54
  L 257.80 222.94
  A 0.18 0.08 -22.1 0 0 257.60 223.14
  Q 259.45 223.24 260.97 223.86
  Q 261.42 224.04 261.91 224.01
  Q 264.28 223.84 266.55 224.53
  A 0.68 0.68 0.0 0 1 267.01 225.34
  L 266.31 228.23
  A 1.04 1.03 -60.3 0 0 266.57 229.20
  Q 267.73 230.41 266.28 231.54
  Q 265.80 231.92 266.36 232.19
  L 267.10 232.55
  Q 267.76 232.86 267.30 233.44
  L 266.50 234.45
  Q 266.17 234.87 266.14 235.39
  L 265.60 243.87
  Q 265.58 244.33 265.26 244.67
  Q 263.36 246.68 263.19 249.36
  Q 263.16 250.00 263.79 250.00
  L 264.47 250.00
  Q 264.89 250.00 264.93 250.42
  Q 265.45 255.77 264.88 261.11
  Q 264.84 261.53 264.56 261.83
  Q 264.23 262.19 264.23 262.47
  Q 264.25 263.53 263.19 263.55
  L 244.74 263.78"
/>
<path stroke="#16e972" vector-effect="non-scaling-stroke" d="
  M 179.96 222.50
  Q 180.66 222.81 181.48 222.76
  Q 182.06 222.73 181.73 223.21
  Q 180.66 224.79 180.97 225.76
  Q 182.52 230.58 182.02 235.68
  A 1.24 1.21 -62.3 0 0 182.29 236.58
  C 185.97 241.19 184.13 244.33 183.36 249.38
  Q 183.28 249.88 183.48 250.34
  Q 185.61 255.30 183.18 261.19
  Q 182.46 262.92 184.50 263.96"
/>
<path stroke="#16e972" vector-effect="non-scaling-stroke" d="
  M 158.75 309.04
  Q 156.33 309.10 156.11 306.60
  A 0.55 0.54 -5.7 0 0 155.50 306.11
  C 152.11 306.53 150.64 309.62 147.75 310.09
  A 2.73 2.73 0.0 0 0 145.58 311.94
  Q 144.39 315.57 141.53 318.08
  A 2.08 2.02 -12.6 0 0 140.93 319.00
  Q 140.33 321.03 138.89 322.53
  A 1.56 1.53 70.2 0 0 138.46 323.47
  Q 138.35 324.81 137.94 326.07
  A 0.23 0.21 -32.9 0 1 137.51 326.00
  L 138.24 322.52
  Q 138.36 321.96 138.00 322.41
  Q 137.28 323.31 137.17 323.93
  Q 135.76 331.64 133.38 339.10
  C 131.68 344.45 132.55 351.20 132.79 356.75"
/>
<path stroke="#16f07b" vector-effect="non-scaling-stroke" d="
  M 132.79 356.75
  L 131.01 372.01"
/>
<path stroke="#09eb82" vector-effect="non-scaling-stroke" d="
  M 215.56 321.15
  Q 215.41 317.94 213.10 321.61
  A 0.16 0.11 -26.9 0 1 212.83 321.58
  Q 212.95 321.36 212.90 321.14
  Q 212.81 320.72 212.40 320.84
  Q 209.92 321.52 209.12 319.21
  Q 208.93 318.66 208.45 319.00
  L 206.28 320.58
  Q 205.51 321.13 205.81 320.23
  L 206.87 317.07
  Q 207.07 316.47 206.54 316.82
  L 205.64 317.41
  Q 205.05 317.81 205.17 317.10
  L 205.31 316.26
  Q 205.39 315.80 205.01 316.08
  L 204.08 316.74
  Q 203.58 317.10 203.69 316.50
  L 203.81 315.79
  Q 203.88 315.39 203.52 315.59
  L 195.12 320.39
  A 0.22 0.22 0.0 0 1 194.82 320.08
  L 195.00 319.77
  Q 195.35 319.19 194.72 319.45
  C 190.90 320.99 187.66 323.50 183.83 324.93
  Q 183.02 325.23 183.39 324.45
  L 183.58 324.06
  Q 183.92 323.35 183.21 323.69
  L 173.28 328.39
  Q 172.88 328.58 172.58 328.25
  L 171.46 326.98
  Q 171.09 326.57 170.64 326.87
  Q 165.68 330.15 163.77 330.30
  C 158.94 330.70 153.79 332.11 151.16 336.09
  Q 150.88 336.51 150.53 336.15
  C 150.21 335.83 145.89 338.36 145.75 338.43
  Q 145.43 338.57 145.61 338.27
  L 145.74 338.04
  Q 145.87 337.82 145.61 337.84
  C 141.08 338.22 138.86 342.85 136.52 345.23
  Q 136.19 345.57 136.02 346.00
  C 134.51 349.93 132.92 351.51 132.79 356.75"
/>
<path stroke="#00a87c" vector-effect="non-scaling-stroke" d="
  M 371.21 204.25
  L 370.92 205.70
  Q 370.87 205.98 370.82 205.70
  Q 370.76 205.37 370.74 205.01
  A 0.12 0.12 0.0 0 0 370.50 205.00
  L 370.50 213.98
  Q 370.50 214.47 370.17 214.83
  C 365.30 220.08 358.34 221.97 354.25 227.57
  C 351.47 231.36 349.55 233.62 346.71 236.44
  Q 346.39 236.75 346.55 237.16
  Q 346.96 238.28 345.83 239.15
  Q 345.78 239.19 345.74 239.13
  Q 345.67 239.01 345.57 238.93
  Q 345.40 238.79 345.27 238.98
  L 343.99 240.89
  A 0.08 0.07 -52.5 0 1 343.88 240.91
  Q 343.74 240.78 343.71 240.58
  Q 343.66 240.34 343.46 240.48
  Q 341.66 241.70 341.67 243.79
  Q 341.67 244.28 341.49 244.73
  Q 340.36 247.67 338.08 249.82
  A 0.11 0.10 24.6 0 0 338.15 250.00
  Q 338.30 250.00 338.46 249.99
  Q 339.18 249.94 338.63 250.42
  Q 334.76 253.76 331.17 257.43
  C 329.20 259.45 327.80 262.46 325.08 264.55
  Q 324.92 264.67 324.83 264.49
  Q 324.66 264.09 324.46 264.00"
/>
<path stroke="#01bf81" vector-effect="non-scaling-stroke" d="
  M 297.01 263.89
  L 309.05 263.56
  A 0.23 0.23 0.0 0 0 309.13 263.11
  L 307.90 262.67
  Q 307.45 262.51 307.35 262.05
  Q 305.98 256.19 306.49 250.16
  Q 306.49 250.04 306.38 250.03
  Q 306.26 250.01 306.11 249.96
  Q 306.00 249.93 306.00 249.81
  L 306.00 244.48
  Q 306.00 243.95 306.45 243.67
  L 307.02 243.33
  Q 307.50 243.04 307.50 242.47
  L 307.50 238.85
  Q 307.50 238.47 307.81 238.25
  Q 309.98 236.72 309.16 234.03
  A 0.64 0.63 68.2 0 1 309.48 233.27
  L 310.72 232.63
  A 0.68 0.68 0.0 0 0 311.02 231.72
  L 309.61 228.84
  Q 309.42 228.43 309.82 228.22
  L 310.61 227.81
  Q 311.04 227.59 310.74 227.21
  L 309.96 226.20
  Q 309.62 225.76 310.13 225.55
  L 311.38 225.03
  A 0.28 0.28 0.0 0 0 311.45 224.56
  Q 310.56 223.78 309.42 224.03
  A 0.19 0.19 0.0 0 1 309.25 223.71
  L 309.56 223.40
  Q 309.78 223.18 309.51 223.02
  C 308.73 222.57 300.83 222.85 298.98 222.55"
/>
<path stroke="#01c67a" vector-effect="non-scaling-stroke" d="
  M 371.09 111.93
  Q 370.07 121.34 370.62 130.71
  A 0.18 0.18 0.0 0 1 370.27 130.80
  L 370.03 130.29
  A 0.30 0.30 0.0 0 0 369.48 130.30
  Q 369.16 131.07 368.56 131.19
  Q 368.01 131.29 367.81 131.81
  Q 366.90 134.21 364.59 135.36
  Q 364.06 135.62 363.79 136.14
  L 359.09 145.03
  Q 358.79 145.59 358.25 145.93
  Q 355.80 147.46 355.37 150.26
  Q 355.18 151.50 355.01 150.26
  L 354.92 149.62
  A 0.70 0.70 0.0 0 0 353.60 149.40
  Q 351.44 153.62 351.24 158.46
  Q 351.22 158.98 350.75 159.17
  Q 347.23 160.62 346.25 164.19
  Q 346.13 164.64 346.41 165.02
  Q 347.87 166.98 350.06 165.79
  Q 350.23 165.70 350.39 165.80
  L 350.70 165.99
  Q 351.11 166.23 350.68 166.44
  L 349.43 167.06"
/>
<path stroke="#018a72" vector-effect="non-scaling-stroke" d="
  M 371.21 235.75
  Q 371.04 235.83 370.96 236.02
  Q 370.91 236.15 370.81 236.04
  L 370.59 235.79
  A 0.05 0.04 -64.9 0 0 370.51 235.82
  Q 370.56 239.26 370.47 242.72
  Q 370.45 243.32 370.30 242.73
  L 370.06 241.79
  Q 369.86 241.03 369.29 241.57
  C 364.98 245.61 361.10 250.31 356.26 253.66
  C 353.85 255.33 351.70 258.92 349.49 261.11
  Q 349.14 261.46 349.64 261.46
  L 349.95 261.46
  Q 350.26 261.46 350.09 261.71
  Q 346.65 266.75 342.22 270.98
  Q 340.14 272.97 336.32 281.15
  A 0.05 0.04 14.9 0 0 336.36 281.21
  L 336.69 281.25
  Q 336.96 281.29 336.86 281.55
  C 336.43 282.59 335.54 283.57 335.21 284.56
  C 332.57 292.48 331.17 297.87 326.02 302.24
  Q 325.98 302.27 325.95 302.24
  L 325.74 302.03
  Q 325.54 301.83 325.55 302.11
  Q 325.57 303.00 325.45 303.89
  Q 325.31 304.88 325.28 303.88
  L 324.76 288.75"
/>
<path stroke="#016f6e" vector-effect="non-scaling-stroke" d="
  M 370.97 292.75
  L 370.46 299.61
  A 0.23 0.12 -60.5 0 1 370.15 299.81
  Q 370.14 299.53 370.04 299.40
  Q 369.71 298.99 369.42 299.43
  Q 363.09 308.82 358.89 319.27
  C 354.79 329.49 350.81 336.63 345.28 345.29
  C 343.90 347.44 336.17 356.24 333.47 354.35
  Q 333.09 354.08 332.68 354.32
  L 330.59 355.60"
/>
</g>
<path fill="#09f28b" d="
  M 180.00 222.46
  Q 179.98 222.48 179.96 222.50
  Q 178.62 221.39 179.05 219.40
  Q 179.19 218.75 178.52 218.75
  L 175.55 218.75
  Q 175.14 218.75 174.85 218.45
  C 171.82 215.28 167.50 213.66 164.99 210.52
  C 163.48 208.64 161.84 205.36 159.89 204.04
  C 157.94 202.71 156.42 202.09 154.68 200.34
  C 152.45 198.10 149.91 196.58 147.70 194.25
  Q 144.79 191.19 141.05 189.06
  A 0.24 0.23 37.3 0 0 140.78 189.09
  L 140.56 189.31
  Q 140.48 189.39 140.37 189.35
  Q 139.25 188.89 139.21 187.76
  Q 139.21 187.51 139.46 187.50
  Q 139.62 187.50 139.79 187.51
  Q 140.18 187.52 140.03 187.16
  Q 139.19 185.24 137.87 183.59
  A 0.36 0.35 -73.0 0 0 137.26 183.92
  L 138.25 187.17
  Q 138.36 187.51 138.00 187.50
  Q 137.87 187.50 137.73 187.49
  A 0.51 0.51 0.0 0 0 137.51 188.47
  Q 139.80 189.31 139.53 191.52
  Q 139.43 192.31 138.79 191.84
  L 137.42 190.82
  Q 137.05 190.55 136.85 190.96
  Q 136.76 191.13 136.67 191.32
  Q 136.47 191.72 136.36 191.28
  L 133.92 181.71
  A 1.39 1.33 -75.2 0 0 133.56 181.06
  C 131.30 178.82 133.21 175.99 130.99 173.98
  L 131.08 113.06
  A 1.05 1.05 0.0 0 1 131.99 112.02
  C 150.29 109.61 171.80 117.27 177.89 136.48
  Q 179.42 141.29 179.46 152.33
  Q 179.56 182.66 179.48 213.00
  Q 179.47 216.66 180.00 222.46
  Z"
/>
<path fill="#01d573" d="
  M 371.09 111.93
  Q 370.07 121.34 370.62 130.71
  A 0.18 0.18 0.0 0 1 370.27 130.80
  L 370.03 130.29
  A 0.30 0.30 0.0 0 0 369.48 130.30
  Q 369.16 131.07 368.56 131.19
  Q 368.01 131.29 367.81 131.81
  Q 366.90 134.21 364.59 135.36
  Q 364.06 135.62 363.79 136.14
  L 359.09 145.03
  Q 358.79 145.59 358.25 145.93
  Q 355.80 147.46 355.37 150.26
  Q 355.18 151.50 355.01 150.26
  L 354.92 149.62
  A 0.70 0.70 0.0 0 0 353.60 149.40
  Q 351.44 153.62 351.24 158.46
  Q 351.22 158.98 350.75 159.17
  Q 347.23 160.62 346.25 164.19
  Q 346.13 164.64 346.41 165.02
  Q 347.87 166.98 350.06 165.79
  Q 350.23 165.70 350.39 165.80
  L 350.70 165.99
  Q 351.11 166.23 350.68 166.44
  L 349.43 167.06
  C 340.29 169.85 328.86 175.70 322.43 183.52
  C 314.97 192.59 306.88 200.30 300.46 210.26
  Q 300.14 210.75 299.55 210.75
  L 248.01 210.74
  A 0.99 0.98 17.1 0 1 247.19 209.20
  Q 262.74 186.25 280.95 165.02
  C 294.56 149.17 309.25 134.28 328.61 122.10
  C 340.63 114.54 356.59 109.91 371.09 111.93
  Z"
/>
<path fill="#00b680" d="
  M 371.09 111.93
  L 371.21 204.25
  L 370.92 205.70
  Q 370.87 205.98 370.82 205.70
  Q 370.76 205.37 370.74 205.01
  A 0.12 0.12 0.0 0 0 370.50 205.00
  L 370.50 213.98
  Q 370.50 214.47 370.17 214.83
  C 365.30 220.08 358.34 221.97 354.25 227.57
  C 351.47 231.36 349.55 233.62 346.71 236.44
  Q 346.39 236.75 346.55 237.16
  Q 346.96 238.28 345.83 239.15
  Q 345.78 239.19 345.74 239.13
  Q 345.67 239.01 345.57 238.93
  Q 345.40 238.79 345.27 238.98
  L 343.99 240.89
  A 0.08 0.07 -52.5 0 1 343.88 240.91
  Q 343.74 240.78 343.71 240.58
  Q 343.66 240.34 343.46 240.48
  Q 341.66 241.70 341.67 243.79
  Q 341.67 244.28 341.49 244.73
  Q 340.36 247.67 338.08 249.82
  A 0.11 0.10 24.6 0 0 338.15 250.00
  Q 338.30 250.00 338.46 249.99
  Q 339.18 249.94 338.63 250.42
  Q 334.76 253.76 331.17 257.43
  C 329.20 259.45 327.80 262.46 325.08 264.55
  Q 324.92 264.67 324.83 264.49
  Q 324.66 264.09 324.46 264.00
  L 297.01 263.89
  L 309.05 263.56
  A 0.23 0.23 0.0 0 0 309.13 263.11
  L 307.90 262.67
  Q 307.45 262.51 307.35 262.05
  Q 305.98 256.19 306.49 250.16
  Q 306.49 250.04 306.38 250.03
  Q 306.26 250.01 306.11 249.96
  Q 306.00 249.93 306.00 249.81
  L 306.00 244.48
  Q 306.00 243.95 306.45 243.67
  L 307.02 243.33
  Q 307.50 243.04 307.50 242.47
  L 307.50 238.85
  Q 307.50 238.47 307.81 238.25
  Q 309.98 236.72 309.16 234.03
  A 0.64 0.63 68.2 0 1 309.48 233.27
  L 310.72 232.63
  A 0.68 0.68 0.0 0 0 311.02 231.72
  L 309.61 228.84
  Q 309.42 228.43 309.82 228.22
  L 310.61 227.81
  Q 311.04 227.59 310.74 227.21
  L 309.96 226.20
  Q 309.62 225.76 310.13 225.55
  L 311.38 225.03
  A 0.28 0.28 0.0 0 0 311.45 224.56
  Q 310.56 223.78 309.42 224.03
  A 0.19 0.19 0.0 0 1 309.25 223.71
  L 309.56 223.40
  Q 309.78 223.18 309.51 223.02
  C 308.73 222.57 300.83 222.85 298.98 222.55
  L 323.08 222.24
  Q 324.50 222.22 324.50 220.80
  L 324.50 184.83
  A 1.20 1.20 0.0 0 1 324.74 184.11
  C 329.22 178.10 334.30 176.02 340.23 172.77
  Q 352.60 165.99 366.53 168.74
  Q 367.00 168.83 367.00 168.35
  L 367.00 167.54
  Q 367.00 166.98 366.45 166.87
  Q 357.99 165.23 349.43 167.06
  L 350.68 166.44
  Q 351.11 166.23 350.70 165.99
  L 350.39 165.80
  Q 350.23 165.70 350.06 165.79
  Q 347.87 166.98 346.41 165.02
  Q 346.13 164.64 346.25 164.19
  Q 347.23 160.62 350.75 159.17
  Q 351.22 158.98 351.24 158.46
  Q 351.44 153.62 353.60 149.40
  A 0.70 0.70 0.0 0 1 354.92 149.62
  L 355.01 150.26
  Q 355.18 151.50 355.37 150.26
  Q 355.80 147.46 358.25 145.93
  Q 358.79 145.59 359.09 145.03
  L 363.79 136.14
  Q 364.06 135.62 364.59 135.36
  Q 366.90 134.21 367.81 131.81
  Q 368.01 131.29 368.56 131.19
  Q 369.16 131.07 369.48 130.30
  A 0.30 0.30 0.0 0 1 370.03 130.29
  L 370.27 130.80
  A 0.18 0.18 0.0 0 0 370.62 130.71
  Q 370.07 121.34 371.09 111.93
  Z"
/>
<path fill="#23ed6a" d="
  M 130.99 173.98
  C 133.21 175.99 131.30 178.82 133.56 181.06
  A 1.39 1.33 -75.2 0 1 133.92 181.71
  L 136.36 191.28
  Q 136.47 191.72 136.67 191.32
  Q 136.76 191.13 136.85 190.96
  Q 137.05 190.55 137.42 190.82
  L 138.79 191.84
  Q 139.43 192.31 139.53 191.52
  Q 139.80 189.31 137.51 188.47
  A 0.51 0.51 0.0 0 1 137.73 187.49
  Q 137.87 187.50 138.00 187.50
  Q 138.36 187.51 138.25 187.17
  L 137.26 183.92
  A 0.36 0.35 -73.0 0 1 137.87 183.59
  Q 139.19 185.24 140.03 187.16
  Q 140.18 187.52 139.79 187.51
  Q 139.62 187.50 139.46 187.50
  Q 139.21 187.51 139.21 187.76
  Q 139.25 188.89 140.37 189.35
  Q 140.48 189.39 140.56 189.31
  L 140.78 189.09
  A 0.24 0.23 37.3 0 1 141.05 189.06
  Q 144.79 191.19 147.70 194.25
  C 149.91 196.58 152.45 198.10 154.68 200.34
  C 156.42 202.09 157.94 202.71 159.89 204.04
  C 161.84 205.36 163.48 208.64 164.99 210.52
  C 167.50 213.66 171.82 215.28 174.85 218.45
  Q 175.14 218.75 175.55 218.75
  L 178.52 218.75
  Q 179.19 218.75 179.05 219.40
  Q 178.62 221.39 179.96 222.50
  Q 180.66 222.81 181.48 222.76
  Q 182.06 222.73 181.73 223.21
  Q 180.66 224.79 180.97 225.76
  Q 182.52 230.58 182.02 235.68
  A 1.24 1.21 -62.3 0 0 182.29 236.58
  C 185.97 241.19 184.13 244.33 183.36 249.38
  Q 183.28 249.88 183.48 250.34
  Q 185.61 255.30 183.18 261.19
  Q 182.46 262.92 184.50 263.96
  Q 182.36 263.36 180.37 263.95
  Q 179.84 264.10 179.83 264.65
  Q 179.47 278.01 179.48 291.29
  C 179.49 300.42 166.00 306.43 158.57 307.33
  Q 158.07 307.39 158.00 307.88
  Q 157.88 308.73 158.75 309.04
  Q 156.33 309.10 156.11 306.60
  A 0.55 0.54 -5.7 0 0 155.50 306.11
  C 152.11 306.53 150.64 309.62 147.75 310.09
  A 2.73 2.73 0.0 0 0 145.58 311.94
  Q 144.39 315.57 141.53 318.08
  A 2.08 2.02 -12.6 0 0 140.93 319.00
  Q 140.33 321.03 138.89 322.53
  A 1.56 1.53 70.2 0 0 138.46 323.47
  Q 138.35 324.81 137.94 326.07
  A 0.23 0.21 -32.9 0 1 137.51 326.00
  L 138.24 322.52
  Q 138.36 321.96 138.00 322.41
  Q 137.28 323.31 137.17 323.93
  Q 135.76 331.64 133.38 339.10
  C 131.68 344.45 132.55 351.20 132.79 356.75
  L 131.01 372.01
  L 130.99 173.98
  Z"
/>
<path fill="#009977" d="
  M 371.21 204.25
  L 371.21 235.75
  Q 371.04 235.83 370.96 236.02
  Q 370.91 236.15 370.81 236.04
  L 370.59 235.79
  A 0.05 0.04 -64.9 0 0 370.51 235.82
  Q 370.56 239.26 370.47 242.72
  Q 370.45 243.32 370.30 242.73
  L 370.06 241.79
  Q 369.86 241.03 369.29 241.57
  C 364.98 245.61 361.10 250.31 356.26 253.66
  C 353.85 255.33 351.70 258.92 349.49 261.11
  Q 349.14 261.46 349.64 261.46
  L 349.95 261.46
  Q 350.26 261.46 350.09 261.71
  Q 346.65 266.75 342.22 270.98
  Q 340.14 272.97 336.32 281.15
  A 0.05 0.04 14.9 0 0 336.36 281.21
  L 336.69 281.25
  Q 336.96 281.29 336.86 281.55
  C 336.43 282.59 335.54 283.57 335.21 284.56
  C 332.57 292.48 331.17 297.87 326.02 302.24
  Q 325.98 302.27 325.95 302.24
  L 325.74 302.03
  Q 325.54 301.83 325.55 302.11
  Q 325.57 303.00 325.45 303.89
  Q 325.31 304.88 325.28 303.88
  L 324.76 288.75
  L 324.46 264.00
  Q 324.66 264.09 324.83 264.49
  Q 324.92 264.67 325.08 264.55
  C 327.80 262.46 329.20 259.45 331.17 257.43
  Q 334.76 253.76 338.63 250.42
  Q 339.18 249.94 338.46 249.99
  Q 338.30 250.00 338.15 250.00
  A 0.11 0.10 24.6 0 1 338.08 249.82
  Q 340.36 247.67 341.49 244.73
  Q 341.67 244.28 341.67 243.79
  Q 341.66 241.70 343.46 240.48
  Q 343.66 240.34 343.71 240.58
  Q 343.74 240.78 343.88 240.91
  A 0.08 0.07 -52.5 0 0 343.99 240.89
  L 345.27 238.98
  Q 345.40 238.79 345.57 238.93
  Q 345.67 239.01 345.74 239.13
  Q 345.78 239.19 345.83 239.15
  Q 346.96 238.28 346.55 237.16
  Q 346.39 236.75 346.71 236.44
  C 349.55 233.62 351.47 231.36 354.25 227.57
  C 358.34 221.97 365.30 220.08 370.17 214.83
  Q 370.50 214.47 370.50 213.98
  L 370.50 205.00
  A 0.12 0.12 0.0 0 1 370.74 205.01
  Q 370.76 205.37 370.82 205.70
  Q 370.87 205.98 370.92 205.70
  L 371.21 204.25
  Z"
/>
<path fill="#09e479" d="
  M 180.00 222.46
  L 276.01 222.54
  L 257.80 222.94
  A 0.18 0.08 -22.1 0 0 257.60 223.14
  Q 259.45 223.24 260.97 223.86
  Q 261.42 224.04 261.91 224.01
  Q 264.28 223.84 266.55 224.53
  A 0.68 0.68 0.0 0 1 267.01 225.34
  L 266.31 228.23
  A 1.04 1.03 -60.3 0 0 266.57 229.20
  Q 267.73 230.41 266.28 231.54
  Q 265.80 231.92 266.36 232.19
  L 267.10 232.55
  Q 267.76 232.86 267.30 233.44
  L 266.50 234.45
  Q 266.17 234.87 266.14 235.39
  L 265.60 243.87
  Q 265.58 244.33 265.26 244.67
  Q 263.36 246.68 263.19 249.36
  Q 263.16 250.00 263.79 250.00
  L 264.47 250.00
  Q 264.89 250.00 264.93 250.42
  Q 265.45 255.77 264.88 261.11
  Q 264.84 261.53 264.56 261.83
  Q 264.23 262.19 264.23 262.47
  Q 264.25 263.53 263.19 263.55
  L 244.74 263.78
  L 184.50 263.96
  Q 182.46 262.92 183.18 261.19
  Q 185.61 255.30 183.48 250.34
  Q 183.28 249.88 183.36 249.38
  C 184.13 244.33 185.97 241.19 182.29 236.58
  A 1.24 1.21 -62.3 0 1 182.02 235.68
  Q 182.52 230.58 180.97 225.76
  Q 180.66 224.79 181.73 223.21
  Q 182.06 222.73 181.48 222.76
  Q 180.66 222.81 179.96 222.50
  Q 179.98 222.48 180.00 222.46
  Z"
/>
<path fill="#01c782" d="
  M 276.01 222.54
  L 298.98 222.55
  C 300.83 222.85 308.73 222.57 309.51 223.02
  Q 309.78 223.18 309.56 223.40
  L 309.25 223.71
  A 0.19 0.19 0.0 0 0 309.42 224.03
  Q 310.56 223.78 311.45 224.56
  A 0.28 0.28 0.0 0 1 311.38 225.03
  L 310.13 225.55
  Q 309.62 225.76 309.96 226.20
  L 310.74 227.21
  Q 311.04 227.59 310.61 227.81
  L 309.82 228.22
  Q 309.42 228.43 309.61 228.84
  L 311.02 231.72
  A 0.68 0.68 0.0 0 1 310.72 232.63
  L 309.48 233.27
  A 0.64 0.63 68.2 0 0 309.16 234.03
  Q 309.98 236.72 307.81 238.25
  Q 307.50 238.47 307.50 238.85
  L 307.50 242.47
  Q 307.50 243.04 307.02 243.33
  L 306.45 243.67
  Q 306.00 243.95 306.00 244.48
  L 306.00 249.81
  Q 306.00 249.93 306.11 249.96
  Q 306.26 250.01 306.38 250.03
  Q 306.49 250.04 306.49 250.16
  Q 305.98 256.19 307.35 262.05
  Q 307.45 262.51 307.90 262.67
  L 309.13 263.11
  A 0.23 0.23 0.0 0 1 309.05 263.56
  L 297.01 263.89
  L 244.74 263.78
  L 263.19 263.55
  Q 264.25 263.53 264.23 262.47
  Q 264.23 262.19 264.56 261.83
  Q 264.84 261.53 264.88 261.11
  Q 265.45 255.77 264.93 250.42
  Q 264.89 250.00 264.47 250.00
  L 263.79 250.00
  Q 263.16 250.00 263.19 249.36
  Q 263.36 246.68 265.26 244.67
  Q 265.58 244.33 265.60 243.87
  L 266.14 235.39
  Q 266.17 234.87 266.50 234.45
  L 267.30 233.44
  Q 267.76 232.86 267.10 232.55
  L 266.36 232.19
  Q 265.80 231.92 266.28 231.54
  Q 267.73 230.41 266.57 229.20
  A 1.04 1.03 -60.3 0 1 266.31 228.23
  L 267.01 225.34
  A 0.68 0.68 0.0 0 0 266.55 224.53
  Q 264.28 223.84 261.91 224.01
  Q 261.42 224.04 260.97 223.86
  Q 259.45 223.24 257.60 223.14
  A 0.18 0.08 -22.1 0 1 257.80 222.94
  L 276.01 222.54
  Z"
/>
<path fill="#017b6d" d="
  M 371.21 235.75
  L 370.97 292.75
  L 370.46 299.61
  A 0.23 0.12 -60.5 0 1 370.15 299.81
  Q 370.14 299.53 370.04 299.40
  Q 369.71 298.99 369.42 299.43
  Q 363.09 308.82 358.89 319.27
  C 354.79 329.49 350.81 336.63 345.28 345.29
  C 343.90 347.44 336.17 356.24 333.47 354.35
  Q 333.09 354.08 332.68 354.32
  L 330.59 355.60
  C 325.92 348.30 324.75 342.45 324.75 333.14
  Q 324.74 310.95 324.76 288.75
  L 325.28 303.88
  Q 325.31 304.88 325.45 303.89
  Q 325.57 303.00 325.55 302.11
  Q 325.54 301.83 325.74 302.03
  L 325.95 302.24
  Q 325.98 302.27 326.02 302.24
  C 331.17 297.87 332.57 292.48 335.21 284.56
  C 335.54 283.57 336.43 282.59 336.86 281.55
  Q 336.96 281.29 336.69 281.25
  L 336.36 281.21
  A 0.05 0.04 14.9 0 1 336.32 281.15
  Q 340.14 272.97 342.22 270.98
  Q 346.65 266.75 350.09 261.71
  Q 350.26 261.46 349.95 261.46
  L 349.64 261.46
  Q 349.14 261.46 349.49 261.11
  C 351.70 258.92 353.85 255.33 356.26 253.66
  C 361.10 250.31 364.98 245.61 369.29 241.57
  Q 369.86 241.03 370.06 241.79
  L 370.30 242.73
  Q 370.45 243.32 370.47 242.72
  Q 370.56 239.26 370.51 235.82
  A 0.05 0.04 -64.9 0 1 370.59 235.79
  L 370.81 236.04
  Q 370.91 236.15 370.96 236.02
  Q 371.04 235.83 371.21 235.75
  Z"
/>
<path fill="#09e479" d="
  M 215.56 321.15
  Q 215.41 317.94 213.10 321.61
  A 0.16 0.11 -26.9 0 1 212.83 321.58
  Q 212.95 321.36 212.90 321.14
  Q 212.81 320.72 212.40 320.84
  Q 209.92 321.52 209.12 319.21
  Q 208.93 318.66 208.45 319.00
  L 206.28 320.58
  Q 205.51 321.13 205.81 320.23
  L 206.87 317.07
  Q 207.07 316.47 206.54 316.82
  L 205.64 317.41
  Q 205.05 317.81 205.17 317.10
  L 205.31 316.26
  Q 205.39 315.80 205.01 316.08
  L 204.08 316.74
  Q 203.58 317.10 203.69 316.50
  L 203.81 315.79
  Q 203.88 315.39 203.52 315.59
  L 195.12 320.39
  A 0.22 0.22 0.0 0 1 194.82 320.08
  L 195.00 319.77
  Q 195.35 319.19 194.72 319.45
  C 190.90 320.99 187.66 323.50 183.83 324.93
  Q 183.02 325.23 183.39 324.45
  L 183.58 324.06
  Q 183.92 323.35 183.21 323.69
  L 173.28 328.39
  Q 172.88 328.58 172.58 328.25
  L 171.46 326.98
  Q 171.09 326.57 170.64 326.87
  Q 165.68 330.15 163.77 330.30
  C 158.94 330.70 153.79 332.11 151.16 336.09
  Q 150.88 336.51 150.53 336.15
  C 150.21 335.83 145.89 338.36 145.75 338.43
  Q 145.43 338.57 145.61 338.27
  L 145.74 338.04
  Q 145.87 337.82 145.61 337.84
  C 141.08 338.22 138.86 342.85 136.52 345.23
  Q 136.19 345.57 136.02 346.00
  C 134.51 349.93 132.92 351.51 132.79 356.75
  C 132.55 351.20 131.68 344.45 133.38 339.10
  Q 135.76 331.64 137.17 323.93
  Q 137.28 323.31 138.00 322.41
  Q 138.36 321.96 138.24 322.52
  L 137.51 326.00
  A 0.23 0.21 -32.9 0 0 137.94 326.07
  Q 138.35 324.81 138.46 323.47
  A 1.56 1.53 70.2 0 1 138.89 322.53
  Q 140.33 321.03 140.93 319.00
  A 2.08 2.02 -12.6 0 1 141.53 318.08
  Q 144.39 315.57 145.58 311.94
  A 2.73 2.73 0.0 0 1 147.75 310.09
  C 150.64 309.62 152.11 306.53 155.50 306.11
  A 0.55 0.54 -5.7 0 1 156.11 306.60
  Q 156.33 309.10 158.75 309.04
  C 173.95 310.25 191.66 285.38 199.05 274.05
  A 2.68 2.68 0.0 0 1 201.31 272.84
  L 250.02 273.07
  A 0.55 0.55 0.0 0 1 250.48 273.93
  C 243.94 283.45 237.93 294.00 231.17 302.52
  Q 223.58 312.09 215.56 321.15
  Z"
/>
<path fill="#00626e" d="
  M 370.97 292.75
  L 371.30 372.16
  A 0.77 0.77 0.0 0 1 370.58 372.93
  C 367.81 373.12 365.17 373.61 362.46 373.39
  Q 342.22 371.72 330.59 355.60
  L 332.68 354.32
  Q 333.09 354.08 333.47 354.35
  C 336.17 356.24 343.90 347.44 345.28 345.29
  C 350.81 336.63 354.79 329.49 358.89 319.27
  Q 363.09 308.82 369.42 299.43
  Q 369.71 298.99 370.04 299.40
  Q 370.14 299.53 370.15 299.81
  A 0.23 0.12 -60.5 0 0 370.46 299.61
  L 370.97 292.75
  Z"
/>
<path fill="#09f28b" d="
  M 215.56 321.15
  C 195.51 345.55 167.13 372.22 133.77 373.59
  Q 131.67 373.68 131.01 372.01
  L 132.79 356.75
  C 132.92 351.51 134.51 349.93 136.02 346.00
  Q 136.19 345.57 136.52 345.23
  C 138.86 342.85 141.08 338.22 145.61 337.84
  Q 145.87 337.82 145.74 338.04
  L 145.61 338.27
  Q 145.43 338.57 145.75 338.43
  C 145.89 338.36 150.21 335.83 150.53 336.15
  Q 150.88 336.51 151.16 336.09
  C 153.79 332.11 158.94 330.70 163.77 330.30
  Q 165.68 330.15 170.64 326.87
  Q 171.09 326.57 171.46 326.98
  L 172.58 328.25
  Q 172.88 328.58 173.28 328.39
  L 183.21 323.69
  Q 183.92 323.35 183.58 324.06
  L 183.39 324.45
  Q 183.02 325.23 183.83 324.93
  C 187.66 323.50 190.90 320.99 194.72 319.45
  Q 195.35 319.19 195.00 319.77
  L 194.82 320.08
  A 0.22 0.22 0.0 0 0 195.12 320.39
  L 203.52 315.59
  Q 203.88 315.39 203.81 315.79
  L 203.69 316.50
  Q 203.58 317.10 204.08 316.74
  L 205.01 316.08
  Q 205.39 315.80 205.31 316.26
  L 205.17 317.10
  Q 205.05 317.81 205.64 317.41
  L 206.54 316.82
  Q 207.07 316.47 206.87 317.07
  L 205.81 320.23
  Q 205.51 321.13 206.28 320.58
  L 208.45 319.00
  Q 208.93 318.66 209.12 319.21
  Q 209.92 321.52 212.40 320.84
  Q 212.81 320.72 212.90 321.14
  Q 212.95 321.36 212.83 321.58
  A 0.16 0.11 -26.9 0 0 213.10 321.61
  Q 215.41 317.94 215.56 321.15
  Z"
/>
</svg>
